<svg xmlns="http://www.w3.org/2000/svg" viewBox="0 0 512 512"><rect width="512" height="512" rx="112" fill="#e9ece6"/><g transform="translate(29.49,20.34) scale(0.9639)"><path fill="#3f3f3d" d="M191.7 52.5h2.7l8.6.2h5.8l14.2.3-.1 1.9-.3 2.5-.3 2.8-.6 7.2c-1.3 12.7-1.3 12.7-3.8 17.2S215.7 91 217 96c2.3 2.6 2.3 2.6 5 5 3.7 3.6 5 5.4 5.3 10.6l-.2 6.4c-.3 13.4 2.9 26.4 6.1 39.4q2 7.8 3.3 15.7 2.4 12.5 6 24.7l1 4.4c.9 4.3.9 4.3 3.4 7.6l2.3 1.3a66 66 0 0 1 15.1 12.3 9 9 0 0 0 5.7 2.6l.8-2.6a41 41 0 0 1 5.2-9.4l1-3-2.2-.2c-3.8-1.1-4.8-2.4-6.8-5.8-.6-3.8-.5-7 1.4-10.5 1.6-1.5 1.6-1.5 4.6-1.5v12l3 1-.3-3.1c.4-4.6 1.5-6.3 4.6-9.5 2.5-2 4.6-2.4 7.7-2.4l3 1 .4-1.8c.7-2.4 1.6-3.8 3.1-5.8l1.4-1.9 1.6-2.1 3-4 1.3-1.8 3.2-4.6h2v-3l-6-2v-2l-2.3-.3-3.7-.7-2.4-.4c-6.8-1.5-6.8-1.5-9-4.6q-1.4-3.4-2.6-7c-2-4.7-4.6-8.3-8.1-12l-1.4-1.6a38 38 0 0 0-15.7-11.1c-1.8-1.3-1.8-1.3-2.3-4.8v-4.3c-.1-5.5-.4-9.3-3.5-14.2-2-1.9-2-1.9-4-3 .3-1.9.3-1.9 1-4a46 46 0 0 1 28.4-8.8l3.6.8c-2.6 3.3-5.6 4-9.6 5.2l-3.6 1-2.8.8 3.3.8 4.1 1.1 2.1.6c5.3 1.4 5.3 1.4 7.5 2.5v2l3 .5c5.3 1.5 9.4 5.5 13 9.5v2l5.1-2.8 3-1.6 6.9-3.9c2.5-1.4 4.3-2.3 7-2.7l1 4-1.9.7c-5.1 2-9.8 3.9-14.1 7.3l-1 3 2 1c-2 2-2 2-4.7 2.1-4-1.4-5.2-3.2-7.4-6.7-1.9-1.8-1.9-1.8-5.4-1.3q-7.4 1.4-14.4 4.3l-2.6.9-2.5.9-2.2.8c-2.1.9-2.1.9-2.8 4l2.2 1.2q4.3 2.8 8 6.3l2.5 2.3 2.3 2.2 1.7 1.5q2.6 3 4.5 6.5l1.6 2.6c1.2 2.4 1.2 2.4 1.2 5.4l1.9-1.5 2.4-1.9 2.4-2c2.2-1.5 3.7-2.2 6.3-2.6-.5 3.6-1.6 4.9-4.5 7.1-2.6 2.1-2.6 2.1-4.5 4.9l3.7 1.1a89 89 0 0 1 12.3 5.2l3.4 1.7c2.6 2 2.6 2 3.5 5.2l.1 2.8h-3l-.7 2.2c-1.4 3-2.9 5.1-5.1 7.6L301 186l-1.6 2c-3 4.1-3.6 6.4-2.8 11.4.7 5.1.7 5.1-.6 7.6l-1.6 1.9c-5.7 7.1-6.6 17.3-8.4 26.1l6 1 .4-2.8c.6-3.2.6-3.2 2.6-6.2l.7-3.5c1.3-3.5 1.3-3.5 3.2-4.5l4.4-1.3 1.7-.7c1.2-2.6 1.2-2.6 1-5h2v-2c3.4-1 6.5-1.1 10-1.1h3.2q3.5.1 6.8 1.1v2l2.2.6c3.7 1.8 5.5 4.1 7.8 7.4a33 33 0 0 1 1 17 28 28 0 0 1-11 11h-6l2-1v-2c1.7-1.6 1.7-1.6 3.9-3.3 4.3-3.7 6.8-6.3 7.6-12.1-.6-5.2-2.5-8.8-6.4-12.4a22 22 0 0 0-12.9-3.3h-2.9l-2.3.1.9 1.6c3 6 3 6 4.1 9.1 1.4 3 3.4 4.3 6 6.3 1.5 2.9 1.1 5.4 1.1 8.6v3.6l-.1 2.8-6-4v3l4 1-1 2-5-1v-8l3-1v-5l-5-2-1 7h2l-1 3-8 1c1.4 2.8 3.6 3.5 6.3 5q2.4 1.4 4.7 3c.6 2.2.6 2.2.7 4.6l.2 2.5.1 1.9-3-1-.9-2.9c-.7-3.1-.7-3.1-2.7-4.3l-2.4-.8a75 75 0 0 1-15.6-7.6A33 33 0 0 0 279 238l-.8 2.7q-1.3 3.8-3.2 7.3h-2q0-6.6 1-13l-2.4-1.2a59 59 0 0 1-19-14.3 53 53 0 0 0-10.9-7.9A31 31 0 0 1 227 193a24 24 0 0 0-10-1l-2 2 2.3.6c3.6 1.8 4.8 3.9 6.7 7.4v2l2.1.6c7 3.4 11.5 10.2 15.9 16.4l3 4-1 2c-4.8-1.4-7.2-4.2-10.3-8l-1.3-1.7c-3.4-4-3.4-4-3.4-6.3l-3-1v-2h-4l-.1 2.6q-1.7 7.4-8 12c-2.6 2-3 4.3-3.9 7.4h-2l-.3 2.8c-.7 3.4-1.1 4.1-3.7 6.2-2 .9-2 .9-4.4 1.7-12.7 5-20 10.4-25.8 22.9a81 81 0 0 0-4.1 16.1 21 21 0 0 1-7.1 13.8c-1.8 1.5-1.8 1.5-2.6 4.5l3.7-.8c3.6-.4 4.2-.3 7.6 1.7l2.7 2.1c2.3.8 2.3.8 4 1v2l9 1 .8-2.1c1.6-3.7 3.7-6.8 6-10.2l2.7-4 1.3-1.9 4.5-6.7q4.2-6.3 8.7-12.1l2.4-3c2.9-2.2 4.8-2.5 8.5-2.5 5.8 1.3 9.9 4.7 14.1 8.7l1.6 1.5 3 2.9 3.8 3.6 1.9 1.8 1.6 1.6c1.1 1.4 1.1 1.4 1.1 4.4a19 19 0 0 1-10.3-6.2c-7.5-8.2-7.5-8.2-17.4-12.6-6.3 1.5-9.5 7.3-13.1 12.4l-1.3 1.8-3.9 5.6q-.4.9-1.2 1.7c-5 7.3-5 7.3-8.8 15.3h2q1.6 2.4 3 5l2 1 .7-1.7c1.8-3 4-4.6 6.7-6.7 4.2-3.3 7-6.1 9.6-10.6h2l1-6c4.3 1.5 5.5 4 7.6 7.9 2.4 4.3 2.4 4.3 5.2 8.3 1.2 1.8 1.2 1.8 1.2 3.8h3l1-4h2l.8-1.8c2.1-3.7 4.2-5.9 8.2-7.2-.5 4.1-1.7 6.4-4.3 9.6l-1.9 2.2-1.8 2.2-3 4h3v-2l2.7-.9c4.7-3 7.2-7 9.3-12.1.3-2.7.3-2.7 0-5l-5 1v-3c9 0 9 0 11 1 .8-2.8 1.2-4.5.3-7.3-1.2-2-1.2-2-4.3-2.7v7h-2v-10h2v-5l.8 1.9c1.5 2.5 2.6 2.9 5.2 4.1 1.8 1.6 1.8 1.6 3 3a79 79 0 0 0 8-18l-1-3h5l-1-5c8.7 0 8.7 0 13 4 2.3 3.3 2.2 6.1 2 10h-3l-1.2-3.4c-1.3-3.7-1.3-3.7-3.9-4.5l-1.9-.1a66 66 0 0 0-7.8 15.1q-1.3 3.4-3.1 6.4c-1.3 2.3-1.3 2.3-.5 4.3 2 3 4.7 5.1 7.5 7.3 5.8 4.5 5.8 4.5 6.9 7.9-3.2.4-4.6.2-7.3-1.6L273 298l-3.6-3.2-1.7-1.5c-1.7-1.5-1.7-1.5-4.7-2.3a89 89 0 0 0 18.4 18.8q3.2 2.4 5.6 5.2c0 3.4 0 3.4-1 6l-1-4-7-1v-4l-1.6-.7c-3.1-1.7-5.6-4-8.4-6.3v7l7 1-1 6c-3.6-.2-5-1-7.8-3.4-2.4-3.1-2.3-5.3-2.1-9.2.3-3.9.3-3.9-1.4-7.2-1.8-1.6-1.8-1.6-4.7-3.2l-1 4h-2l-2 6-.7 2c-.5 2-.5 2 .9 3.8l1.6 1.8A30 30 0 0 1 261 336l2.4-.9 3-1.1 3-1.1c2.6-.9 2.6-.9 4.6-.9l1-14h1v11l2.3-2.4c4.8-4.6 4.8-4.6 8.7-4.6l-.4 5.9-.2 3.3c-.4 2.8-.4 2.8-1.4 4.8-.4 2.9-.4 2.9 0 6 1.5 2 1.5 2 4 3 3.7.3 3.7.3 7 0 2-2 1.8-5.3 2.2-7.9l.6-3.9.2-3.2-2-2 5-1v-3l-2.2-.8a23 23 0 0 1-6.8-4.2v-4a17 17 0 0 1 8.2 3.9l2.1 1.6a8 8 0 0 1 2.7 3.5c.4 5.3.4 5.3-.9 7.8-1.2 2.6-1.5 4.8-1.9 7.6a20 20 0 0 1-3.2 8.8c-4.3 2.6-8 2.7-13 1.8a14 14 0 0 1-6-6v-13c-2.3 1.8-2.9 2.7-3.3 5.6v5.9c.1 2.7.1 2.7 2.3 4.5q1.3 5.3 1.2 10.7v3c-.2 2.3-.2 2.3-1.2 3.3-6.2.6-6.2.6-9.4-1.8-1.6-2.2-1.6-2.2-1.6-5.2l4 1v2l4 1v-11l-5 1-1-4 1-1q.5-2 .6-4.1l.4-3.9-1.9.9a34 34 0 0 1-10 1.7c-2.4.3-2.4.3-5.1 2.4l-7.1.4c-5.2.3-9.7.9-14.6 2.8-3.8 1.3-7.8 1.6-11.7 2-2.8.5-2.8.5-3.7 3.1l-.9 2.7a74 74 0 0 1-12.9 17.7l-4.6 5.5a48 48 0 0 1-6.6 6.1c-3.7 3.2-5 5.8-6.2 10.5-1.3 4.3-3.8 9.7-7.7 12.2-3.5.6-5.8.7-8.9-1.3l-4-3.2c-3.2-2.3-6.2-2.8-10.1-3.5l.1 2.1.1 2.7v2.7c-.2 2.5-.2 2.5-2.2 5.5h-2l-.6 1.6c-1.4 2.4-1.4 2.4-3.9 5.5-4.3 5.1-3.8 10.4-4.2 16.8-.3 3.1-.3 3.1-1.3 4.1h-5c-.6-18.4-.6-18.4 5.4-25.4q2.8-3 6-5.5c2.7-3.5 2.5-7.8 2.6-12.1a52 52 0 0 0-13-3l.5 1.9c.7 4.3.6 8.7.5 13.1h-2l-3-8c-2.3 3.7-2.4 7.5-2.8 11.7A32 32 0 0 1 126 429l-1.7 2.8c-3.4 5.2-3.4 5.2-5.3 7.2h-4c.4-4.6 1.6-7 4.6-10.4 6.7-7.7 8.1-15.3 9.1-25.2 1.5-13.8 3.8-24.9 14.8-34.6 4.3-3.8 6.7-6.7 7.1-12.6V348c.1-9.3 3.4-15.4 8.4-23 2.9-4.4 3.8-7.8 3-13-1.4-3.3-1.4-3.3-3-6v-2h-4l.2 2.4a46 46 0 0 1-3.2 14.7l-2 6.9-1 3.4-2 6.6h-4l2.4-12.3.6-3.4c5.4-28.6 5.4-28.6 13-34.6 5.4-4.8 5.7-11.2 6.7-18 .8-5.8 2.1-9.8 5.3-14.7h2v-3a49 49 0 0 0-21.3 13.6C150 267 150 267 147 267c.5-4.9 2.7-7.3 6-10.8l1.4-1.5q1.7-2 3.6-3.7h2v-2.2l-.1-3v-2.9c.1-2.9.1-2.9 1.1-5.3 1.6-4.1 1.4-8.4 1.5-12.7.2-5.7 1.6-8.9 5.5-12.9q4-1.7 8-3c.9-2.1.9-2.1 1.4-4.7a232 232 0 0 1 7.6-23.6l3-8.7h3c.3 4.1.1 7.2-1.3 11.1l-3.1 9.7-.8 2.4-1.4 4.9A35 35 0 0 1 178 213c-2.5 1.3-2.5 1.3-5.1 2.3-2.8 1.4-2.8 1.4-4.9 3.7q-1 6.3-.9 12.7c0 5.4-1.3 10.2-3.1 15.3 11.2-.1 11.2-.1 20.5-5.5 1.7-1.6 3-2.3 5.2-3.2 8-3.2 8-3.2 14.1-8.9 1-2.6 1-2.6 1.6-5.1 1-3.4 2.9-5.2 5.6-7.3l3-1c2.1-4.2 3.6-9.4 4-14-2.4-2.5-3.4-2.4-6.9-2.6l-2.9-.2-3.1-.3-6-.4-2.7-.2c-2.4-.3-2.4-.3-5.4-1.3v-3l3.6-.1 4.6-.1h2.4c4.3-.2 5.9-.4 9.3-3.4l2.1-2.4h3a55 55 0 0 0-7.1-10.6 20 20 0 0 1-3.9-10.8 27 27 0 0 0-7-15.6l-3.8-5.4-1.8-2.5C191 141 191 141 191 139c-8.7 3.1-8.7 3.1-15.1 9.4l-.9 3.6c-2 6.4-4.8 12.7-9 18h-3c.3-4.4.9-7.2 3.5-10.8a20 20 0 0 0 3.5-9.4c.9-4.8 2-6.9 6-9.8l7.6-3.6c4.9-2.9 7.4-7.8 10.1-12.6 3.1-5.6 3.1-5.6 5.3-7.8l1.3-7.5c1-6.4 2.7-11.1 6.6-16.4 1.5-2.8 1-4.2.1-7.1-.7-3.3-.7-3.3-4-5-.3-2.5-.3-2.5 0-5l2-2c2.2.4 2.2.4 4 1l.4 1.7.5 2.2.5 2.2c.5 2.1.5 2.1 2.6 2.9l.4-3.4.5-4.6.3-2.3.2-2.2.2-2q1-5.3 2.4-10.5h-28l-3.1 13.5-3.2 15.5-1.2 5.5a46 46 0 0 1-15.1 27.1l-6.8 6.8-4.2 4.2c-8.3 9.5-9.5 21.3-11.4 33.4l-.3 2.3-1.3 8.6c-.4 2.1-.4 2.1-1.4 3.1l-.1 3.9c-.6 6.3-4.1 10.3-7.9 15.1-4.1 6.3-2.3 15-.9 22.2l.4 2c2.2 10.5 2.8 19.7-2.9 29.2l-3.1 4.3c-4.8 7.4-5 14-5.1 22.7l-.1 3.7-.3 8.9h2l.4-3.1c.6-3.9 1.8-6.5 3.6-9.9h3a234 234 0 0 1-2.8 16.4l-.5 2.4A73 73 0 0 1 121 314l-.1 5.2v2.9c.1 2.9.1 2.9.6 5.7 1.2 7 1.2 14.1 1.5 21.2l.2 3.5A45 45 0 0 1 115 379h-2c.5-4.5 1.1-8.4 2.5-12.6A67 67 0 0 0 118 347h-2l-.6 2c-1.6 3.5-3.7 6.2-6 9.2-2.9 3.8-2.6 7.5-2.8 12q-.6 12-2.6 23.8l-.4 2.8a52 52 0 0 1-9.2 21.4l-1.3 1.9L89 426l-1.2 1.8-3.6 5.1-2.1 2.9c-2.1 2.3-3.1 2.9-6.1 3.2-.7-2.2-.7-2.2-1-5 1.5-2.6 1.5-2.6 3.6-5.3l2.3-2.9L83 423l4.6-6.8 3-4.3c8.2-11 8.1-25.2 9-38.4 1-14.6 1-14.6 5.4-20.5l1.7-2.7 1.5-2.2 1.5-2.4 1.3-1.7h2c1.1-3.4 1.2-6.6 1.3-10.2v-3.6l.2-7.6c.1-6.6.8-12.2 2.9-18.4.9-3.2.7-6.1.4-9.3l-.4-3.7-.9-7.2a52 52 0 0 1 2.5-28l4-5c5.5-10.4 4.2-19.7 2.8-30.9q-1-6-.8-12.1h-2q-3 8.9-5 18h-3l-.1 2.2c-1.6 5.2-6.1 7-10.5 9.4l-2.4 1.2c-2.5 1.5-3.7 2.5-4.6 5.3L97 246h-2l.1 1.8q0 9.5-1.4 18.8l-.4 2.6a129 129 0 0 1-2.3 12.4 54 54 0 0 0-1.3 13.3v2.4c.1 5.2.9 9.6 2.7 14.5 3.1 10-1.4 20.6-4.4 30.2h-3l.4-4.7.2-2.6c.4-2.7.4-2.7 1.5-5.2a28 28 0 0 0-.5-19.1L85 307a57 57 0 0 1 .8-28.4q2-11 3.1-22.1c1.7-15.6 1.7-15.6 7.3-20.8q3.8-2.8 8-4.6c5.6-2.6 7.7-7.1 9.8-12.8l2-5.6c1.4-3.5 3.3-6.4 5.5-9.5q2.2-3.2 4-6.8 2.5-4.5 5.7-8.3c4.5-5.9 4.7-13.1 5.7-20.3l1.3-9.2.6-4.8A46 46 0 0 1 152 125l2.7-3.3q2.8-3.3 6.3-6.1c11.5-9.9 14-22.2 16.7-36.7q.9-6.2 3.3-11.9.7-3.5 1-7h-3v2a54 54 0 0 1-16.3 5.6q-9.3 2-18.7 3.4v-4l3.5-.7c16.4-3 16.4-3 30.6-10.9 4.4-3.1 8.3-3.1 13.6-2.9"/><path fill="#42423f" d="M188 172h3c.3 4.1.1 7.3-1.3 11.1l-3.2 9.7-.7 2.5-1.5 4.9c-1.4 4.8-3 8.9-6.3 12.8-2.5 1.3-2.5 1.3-5.2 2.3-2.8 1.4-2.8 1.4-4.8 3.7-.9 4.3-.9 8.3-.9 12.7 0 5.4-1.4 10.2-3.1 15.3 7.9-.2 13.4-.7 20-5 3.4-.7 3.4-.7 6-1l-2 3h-2l2 2-3.1 1.8c-7.5 5.3-11.8 15.4-13.9 24.2l-.9 5.6c-1.2 6.8-2.5 11.1-7.6 15.9-1.8 1.5-1.8 1.5-2.5 4.5l3.6-.7c3.6-.5 4.3-.4 7.6 1.6l2.8 2.1c2.2.8 2.2.8 4 1v2l9 1 .7-2c1.6-3.8 3.8-6.9 6.1-10.2l2.7-4.1 1.3-1.9 4.5-6.7q4-6.3 8.7-12.1l2.4-3c2.9-2.2 4.8-2.5 8.4-2.5 5.8 1.3 9.9 4.7 14.1 8.8l1.6 1.4 3.1 3 3.7 3.5 2 1.8 1.6 1.6c1.1 1.4 1.1 1.4 1.1 4.4a18 18 0 0 1-10.3-6.2c-7.6-8.2-7.6-8.2-17.4-12.5-6.3 1.4-9.6 7.2-13.1 12.3l-1.3 1.8-3.9 5.6-1.2 1.7c-5.1 7.3-5.1 7.3-8.8 15.3h2l3 5 2 1 .7-1.7c1.7-3 3.9-4.6 6.7-6.7 4.1-3.3 6.9-6.1 9.6-10.6h2l1-6c4.2 1.5 5.5 4 7.6 7.9 2.3 4.3 2.3 4.3 5.1 8.4 1.3 1.7 1.3 1.7 1.3 3.7h3l1-4h2l.8-1.7c2-3.8 4.1-5.9 8.2-7.3-.5 4.1-1.7 6.4-4.4 9.6l-1.8 2.2-1.8 2.2-3 4h3v-2l2.6-.9c4.7-2.9 7.2-7 9.4-12.1.2-2.7.2-2.7 0-5l-5 1v-3c9 0 9 0 11 1 .8-2.8 1.2-4.5.3-7.2-1.3-2.1-1.3-2.1-4.3-2.8v7h-2v-10h2v-5l.8 1.9c1.4 2.5 2.6 2.9 5.2 4.1 1.8 1.6 1.8 1.6 3 3a88 88 0 0 0 8-18l-1-3h5l-1-5c8.7 0 8.7 0 13 4 2.3 3.3 2.2 6.1 2 10h-3l-1.2-3.4c-1.4-3.7-1.4-3.7-4-4.5l-1.8-.1a64 64 0 0 0-7.8 15.2q-1.3 3.2-3.1 6.3c-1.4 2.4-1.4 2.4-.5 4.3 2 3 4.6 5.1 7.5 7.3 5.8 4.5 5.8 4.5 6.9 7.9-3.2.4-4.7.2-7.4-1.6L273 298l-3.6-3.2-1.8-1.5c-1.7-1.5-1.7-1.5-4.6-2.3a86 86 0 0 0 18.4 18.8q3 2.4 5.6 5.2c0 3.4 0 3.4-1 6l-1-4-7-1v-4l-1.6-.7a43 43 0 0 1-8.4-6.3v7l7 1-1 6c-3.6-.2-5-1-7.8-3.4-2.4-3.1-2.4-5.3-2.1-9.2s.3-3.9-1.4-7.2c-1.8-1.6-1.8-1.6-4.7-3.2l-1 4h-2l-2 6-.7 2c-.5 2.1-.5 2.1.8 3.8l1.7 1.8A31 31 0 0 1 261 336l2.3-.9 3.1-1.1 3-1.1c2.6-.9 2.6-.9 4.6-.9l1-14h1v11l2.3-2.4c4.8-4.6 4.8-4.6 8.7-4.6l-.4 5.9-.3 3.3c-.3 2.8-.3 2.8-1.3 4.8-.4 3-.4 3 0 6 1.5 2 1.5 2 4 3 3.6.3 3.6.3 7 0 2-2 1.8-5.3 2.2-7.9l.6-3.9.2-3.2-2-2 5-1v-3l-2.2-.8a22 22 0 0 1-6.8-4.2v-4c3.4.6 5.5 1.9 8.2 3.9l2.1 1.6a8 8 0 0 1 2.7 3.5c.3 5.3.3 5.3-1 7.9a21 21 0 0 0-1.8 7.5c-.7 3.7-1.2 5.6-3.2 8.8-4.3 2.6-8.1 2.7-13 1.8-2.9-1.8-4.5-2.9-6-6l-.1-6.6.1-3.6V331c-2.3 1.8-3 2.7-3.4 5.6l.1 3v2.9c.1 2.7.1 2.7 2.3 4.5q1.3 5.3 1.1 10.8v2.9c-.1 2.3-.1 2.3-1.1 3.3-6.2.6-6.2.6-9.4-1.8-1.6-2.2-1.6-2.2-1.6-5.2l4 1v2l4 1v-11l-5 1c-.6-1.9-.6-1.9-1-4l1-1 .6-4.1.4-3.9-1.9.9a38 38 0 0 1-10 1.8c-2.4.2-2.4.2-5.1 2.3q-3.5.3-7.1.4c-5.3.3-9.8.9-14.6 2.9-3.8 1.2-7.8 1.5-11.8 1.9-2.7.5-2.7.5-3.7 3.1l-.8 2.7a80 80 0 0 1-12.9 17.8 61 61 0 0 0-4.7 5.4 47 47 0 0 1-6.5 6.1c-3.8 3.2-5 5.8-6.3 10.5-1.2 4.3-3.7 9.7-7.6 12.2-3.5.6-5.9.7-9-1.3l-3.9-3.2c-3.2-2.3-6.3-2.8-10.1-3.5l.1 2.1v2.7l.1 2.7c-.2 2.5-.2 2.5-2.2 5.5h-2l-.7 1.6c-1.3 2.4-1.3 2.4-3.9 5.5-4.2 5.1-3.7 10.4-4.1 16.8-.3 3.1-.3 3.1-1.3 4.1h-5c-.6-18.4-.6-18.4 5.4-25.4q2.8-2.9 6-5.5c2.7-3.5 2.4-7.8 2.6-12.1a52 52 0 0 0-13-3l.5 1.9c.7 4.4.6 8.7.5 13.1h-2l-3-8c-2.3 3.7-2.4 7.5-2.8 11.7A33 33 0 0 1 126 429l-1.7 2.8c-3.5 5.2-3.5 5.2-5.3 7.2h-4c.3-4.6 1.5-7 4.6-10.4 6.7-7.7 8.1-15.3 9.1-25.1 1.4-13.9 3.7-25 14.8-34.7 4.3-3.8 6.7-6.7 7-12.6V348c.1-9.3 3.5-15.4 8.5-23 2.9-4.4 3.8-7.8 3-13-1.4-3.3-1.4-3.3-3-6v-2h-4l.1 2.5c-.1 4.3-1.2 8.1-2.4 12.3l-.7 2.4-2 6.8-1 3.4-2 6.6h-4l2.3-12.2.7-3.5c5.4-28.6 5.4-28.6 13-34.5 5.3-4.9 5.7-11.3 6.6-18.1.9-5.8 2.1-9.8 5.4-14.7h2v-3a49 49 0 0 0-21.4 13.6C150 267 150 267 147 267c.4-4.9 2.6-7.3 5.9-10.8l1.4-1.5 3.7-3.7h2l-.1-2.2v-3l-.1-2.9c.2-2.9.2-2.9 1.2-5.3 1.6-4.1 1.4-8.4 1.5-12.7.2-5.7 1.5-8.9 5.5-12.9q4-1.6 8-3c.9-2.1.9-2.1 1.4-4.7q2.7-10.2 6.3-20l1.2-3.6z"/><path fill="#f1f1ec" d="M220.4 190.5c4.6.6 5.8 1.9 8.6 5.5q2.9 4.4 5 9.3c1.5 2.4 3.4 2.7 6 3.7q10.4 6.8 18.8 16.1c3.5 3.7 8.1 5.5 12.7 7.7 2.5 1.2 2.5 1.2 3.5 2.2l-1 7-.5 3.4-.5 2.6h2l.9-2.7q1.3-3.8 3.1-7.3c8.4.3 16 3 22 9l3.3.8c4.9 1.6 7.5 4 9.9 8.5l.8 1.7 2 1v-5c2.8 2.8 2.4 4.5 2.5 8.4-.4 15.9-10.7 28-20 40.3l-1.3 1.8-1.2 1.5a16 16 0 0 0-3.6 11.1c.9 2.7 2.2 3.3 4.6 4.7l2.3 1.1 1.7 1.1v3l-3 2 .6 1.6c.5 2.9.2 5.1-.4 8l-.5 2.9c-.7 2.5-.7 2.5-2.7 4.5-4 .5-6.3.4-9.9-1.6-2.1-2.4-2.1-2.4-2.5-5q.8-5.6 2.1-11c.3-2.5.1-4.1-.7-6.4a27 27 0 0 0-7 7h-2l-1-3 .1 2.8c-1.1 3.2-1.1 3.2-3 4.5-4 1.8-6.6 2.7-11.1 2.7l-.3-2.1q-1.5-9.2-4.7-17.9l-1-3-3-1c-.9-2.6-1.3-4.3-.2-6.9l3.2-5.1h2l1-4c2.9 1.3 5.1 2.5 7 5 .2 2.5.2 2.5 0 5.4-.1 3.8-.2 5.3 1.7 8.7 2.4 2 4.4 3 7.3 3.9l1-6-1.8.6c-2.2.4-2.2.4-5.2-1.6-.2-3.6-.2-3.6 0-7 4 1.7 6.9 4 10 7v4l3.5.4c3.5.6 3.5.6 4.5 1.6-.5-3.6-1.7-5-4.5-7.3l-2.2-1.8-2.3-1.9c-10.2-8.6-10.2-8.6-14-14v-2c4.3.5 6.9 3.2 10 6 3.9 3.6 3.9 3.6 9 4q-7.2-7.2-15-14c1.8-6.7 1.8-6.7 4-9q2-4.8 3.6-9.7c1.4-3.3 3.1-5.6 5.4-8.3 1.8.2 1.8.2 4 1 2.2 2.9 3 4.4 3 8h3c-1.1-5.9-2.1-9.2-7-13h-7v4l-4 1 .7 1.7c.5 3.3-.9 4.5-2.7 7.3l-2.9 7.8C266 280 266 280 263 282l-1.6-2.5c-2.2-2.8-2.2-2.8-5.6-2.8l-2.8.3v10h2v-7c1.9.1 1.9.1 4 1 1.4 2.9 1.4 2.9 2 6l-2 3-1.8-.6c-2.2-.6-2.2-.6-4.2.6l-5-1 1 2h4c1.1 3.3 1.2 4.6-.2 7.8l-1.8 2.9-1.8 2.9c-2.6 2.8-4.5 3.5-8.2 4.4v2h-3c2-4.5 5.2-7.9 8.3-11.7 2-2.2 2-2.2 1.7-5.3-1.9.2-1.9.2-4 1-1.2 1.9-1.2 1.9-2 4l-2 3h-2l-1 4h-3q-2.1-3-4-6l-2-3.4-3.2-5.2c-1.8-3.2-1.8-3.2-4.8-5.4l-1 6h-2l-.7 2.2a20 20 0 0 1-6.1 7.3Q205 306 200 311c-1.9-.7-1.9-.7-4-2-.7-2.1-.7-2.1-1-4h-2c.6-4.3 2-6.9 4.5-10.4l2.1-3.2 2.4-3.4 1.3-1.8C215 269.5 215 269.5 218 268c4.1-.4 6.3-.4 9.8 1.7l2.7 2.3 2.8 2.5q4.6 4.2 8.9 8.9c2.1 1.9 4.1 2.7 6.8 3.6a46 46 0 0 0-8.7-11l-1.6-1.6c-6.1-5.9-11.6-11-20.6-10.9-8.1 1.9-13.2 13.6-17.3 20l-1.1 1.8q-3.2 4.8-6 9.7l-1.2 2-2.1 3.7c-1 1.7-1 1.7-3.4 4.3-3.5.4-5.8.6-9-1v-2l-2.2-.3c-2.8-.7-2.8-.7-5.1-2.3-3.7-2-6.5-1.6-10.7-1.4.3-3.9 1-4.9 4-7.6 3.7-3.6 4.3-7.1 5.1-12 2.1-11.1 5.1-22.7 13.9-30.4q9.4-6.2 19.9-10c2.2-.8 2.2-.8 3.3-2.7l.6-1.9 1.2-3.4h2l.1-2.7c1-3.8 2.3-4.6 5.4-6.9 3.5-3.2 5-8 6.5-12.4h4c2.2 2.2 2.2 2.2 4.5 5.1l2.3 3.1 3.8 4.8c1.8 2.3 3 3.8 5.7 4.9l1.7.1a65 65 0 0 0-18.2-20.5c-2.6-2.2-4-4.8-5.6-7.8-1.6-2.4-3.4-3.1-6.2-3.7 2-2.7 3-3 6.4-3.5"/><path fill="#454543" d="M299.2 83.6h3.3c9.1.1 16.9 1.7 25.5 4.4l8 2v2l1.6.4a53 53 0 0 1 15.2 7.6c2.2 1.3 2.2 1.3 4.4.3 2-1.2 2-1.2 2.8-3.3h4c-.9 4.8-.9 4.8-1.7 6.9-.5 2.1-.5 2.1 1 3.8l1.9 1.8 2.1 2 2.2 2A75 75 0 0 1 385 133l2.3 3.7a91 91 0 0 1 9.9 45.4v6.4q.1 9.3-1.2 18.5l-3-.2c-8.4-.5-8.4-.5-16.1 2.3-2.9 1.9-2.9 1.9-5.4 1.4-7.6-4.8-7.6-4.8-9.5-8.5l-7.2-3.5-2.1-1c-4.9-2.1-9.1-3-14.3-3.4-5.8-.6-5.8-.6-8.5-3.2-1.6-2.5-1.6-2.5-2.9-4.9-.8-2.2-.8-2.2-3-3l-1.2-2.2c-2-3.2-4.4-5.2-7.4-7.5L314 172v-2l-3-1 2-1c-.7-3.1-.7-3.1-3-4.3l-2.7-1.2-2.8-1.3-3-1.4-3.1-1.4-7.4-3.4c1.8-4.2 4.5-6.1 8-9l1-3q-4.4 2.3-8.2 5.7C289 151 289 151 287 151l-1.2-2.6-4-7.2C280 138 280 138 280 136l-1.7-.7c-3.8-2.2-6.7-5.3-9.9-8.2-2.1-1.9-3.8-3-6.4-4.1 1-2.5 1.6-3.8 3.9-5.1l2.2-.8 2.5-.9 2.5-.9 2.6-.9c5.1-1.9 9.9-3 15.3-3.4l.8 1.9c1.1 2.4 1.1 2.4 4.2 3.1l1 2 5 1 .5-2.7c2.5-5.4 7.2-7.3 12.5-9.6l2-.7-1-2h3v-2q-9 4-17.1 9.8C300 113 300 113 297 113q-3.6-3.5-6.9-7.1a26 26 0 0 0-9.1-4.9v-2l-19-4c2.5-2.5 4.7-3.1 8.1-4.1l3.4-1.1 2.5-.8v-3a107 107 0 0 1 23.2-2.4"/><path fill="#f1f1ec" d="M220.4 190.5c4.6.6 5.8 1.9 8.6 5.5q2.9 4.4 5 9.3c1.5 2.4 3.4 2.7 6 3.7q10.4 6.8 18.8 16.1c3.5 3.7 8.1 5.5 12.7 7.7 2.5 1.2 2.5 1.2 3.5 2.2l-1 7-.5 3.4-.5 2.6h2l.9-2.7q1.3-3.8 3.1-7.3c8.4.3 16 3 22 9l3.3.8c4.9 1.6 7.5 4 9.9 8.5l.8 1.7 2 1v-5c2.8 2.8 2.4 4.5 2.5 8.4-.4 15.9-10.7 28-20 40.3l-1.3 1.8-1.2 1.5a16 16 0 0 0-3.6 11.1c.9 2.7 2.2 3.3 4.6 4.7l2.3 1.1 1.7 1.1v3l-3 2 .6 1.6c.5 2.9.2 5.1-.4 8l-.5 2.9c-.7 2.5-.7 2.5-2.7 4.5-4 .5-6.3.4-9.9-1.6-2.1-2.4-2.1-2.4-2.5-5q.8-5.6 2.1-11c.3-2.5.1-4.1-.7-6.4a27 27 0 0 0-7 7h-2l-1-3 .1 2.8c-1.1 3.2-1.1 3.2-3 4.5-4 1.8-6.6 2.7-11.1 2.7l-.3-2.1q-1.5-9.2-4.7-17.9l-1-3-3-1c-.9-2.6-1.3-4.3-.2-6.9l3.2-5.1h2l1-4c2.9 1.3 5.1 2.5 7 5 .2 2.5.2 2.5 0 5.4-.1 3.8-.2 5.3 1.7 8.7 2.4 2 4.4 3 7.3 3.9l1-6-1.8.6c-2.2.4-2.2.4-5.2-1.6-.2-3.6-.2-3.6 0-7 4 1.7 6.9 4 10 7v4l3.5.4c3.5.6 3.5.6 4.5 1.6-.5-3.6-1.7-5-4.5-7.3l-2.2-1.8-2.3-1.9c-10.2-8.6-10.2-8.6-14-14v-2c4.3.5 6.9 3.2 10 6 3.9 3.6 3.9 3.6 9 4q-7.2-7.2-15-14c1.8-6.7 1.8-6.7 4-9q2-4.8 3.6-9.7c1.4-3.3 3.1-5.6 5.4-8.3 1.8.2 1.8.2 4 1 2.2 2.9 3 4.4 3 8h3c-1.1-5.9-2.1-9.2-7-13h-7v4l-4 1 .7 1.7c.5 3.3-.9 4.5-2.7 7.3l-2.9 7.8C266 280 266 280 263 282l-1.6-2.5c-2.2-2.8-2.2-2.8-5.6-2.8l-2.8.3v-4l-2.3-1.3c-2.7-1.7-2.7-1.7-4-5-.7-3.7-.5-6.1.3-9.7h-2v-2l-8-1-1-3c5.4-.3 8.5-.4 13 3l-.9-2.5q-2-6.7-2.8-13.6c-.8-5-2.3-8-5.3-11.9l4-1c-7.7-10.9-7.7-10.9-17.6-19.5-2.6-1.7-3.3-2.9-4.9-5.6-1.7-2.9-2.2-3.8-5.3-5.4l-2.2-.5c2-2.7 3-3 6.4-3.5"/><path fill="#474743" d="M183 60c3.6 5.4 3.1 10 1.9 16.2l-.6 2.7-.6 2.8-1.1 5.6-1.1 5.1a47 47 0 0 1-15.2 27.2l-6.7 6.8-4.3 4.3c-8.3 9.4-9.4 21.2-11.3 33.3l-.4 2.3q-.7 4.3-1.2 8.6c-.4 2.1-.4 2.1-1.4 3.1l-.1 3.9c-.6 6.3-4.2 10.3-7.9 15.1-4.2 6.3-2.3 15-.9 22.2l.4 2.1c2.1 10.4 2.8 19.6-2.9 29.1l-3.1 4.3c-4.9 7.5-5 14-5.2 22.7l-.1 3.7-.2 8.9h2l.3-3.1c.7-3.9 1.8-6.5 3.7-9.9h3q-1 8.2-2.9 16.4l-.5 2.4A77 77 0 0 1 121 314l-.1 5.3v2.8c0 2.9 0 2.9.6 5.7 1.1 7 1.2 14.1 1.5 21.2l.2 3.5A46 46 0 0 1 115 379h-2c.4-4.5 1.1-8.4 2.5-12.6 2-6.4 2.2-12.8 2.5-19.4h-2l-.6 2a43 43 0 0 1-6.1 9.2c-2.8 3.8-2.6 7.5-2.7 12.1q-.6 12-2.6 23.7l-.5 2.8a52 52 0 0 1-9.1 21.4l-1.3 1.9L89 426l-1.3 1.8-3.6 5.1-2.1 2.9c-2.1 2.3-3 2.9-6 3.2-.7-2.2-.7-2.2-1-5 1.4-2.6 1.4-2.6 3.6-5.2l2.2-3L83 423l7.6-11.1c8.1-11 8.1-25.2 9-38.4 1-14.5 1-14.5 5.4-20.5l1.6-2.7 1.5-2.2 1.5-2.4 1.4-1.7h2q1.4-5 1.2-10.2l.1-3.6.1-7.6c.2-6.6.8-12.2 3-18.4.9-3.2.7-6 .3-9.3l-.3-3.7-1-7.2a51 51 0 0 1 2.6-28l4-5c5.5-10.4 4.2-19.7 2.7-30.9q-.8-6-.7-12.1h-2q-3 8.9-5 18h-3l-.2 2.3c-1.5 5.1-6 6.9-10.5 9.3l-2.3 1.3c-2.5 1.4-3.8 2.4-4.6 5.2L97 246h-2v1.8q.1 9.5-1.4 18.8l-.4 2.6a129 129 0 0 1-2.3 12.4q-1.3 6.6-1.2 13.3v2.4c.1 5.2.9 9.6 2.6 14.5 3.2 10-1.4 20.6-4.3 30.2h-3l.4-4.7.2-2.6c.4-2.7.4-2.7 1.4-5.2a28 28 0 0 0-.4-19.1L85 307a57 57 0 0 1 .7-28.4q2-11 3.1-22.1c1.8-15.6 1.8-15.6 7.4-20.8q3.7-2.8 7.9-4.6c5.6-2.6 7.8-7.1 9.9-12.7l1.9-5.7c1.4-3.5 3.4-6.4 5.6-9.5q2.2-3.2 4-6.8 2.5-4.4 5.7-8.3c4.5-5.9 4.7-13.1 5.6-20.2l1.4-9.3.6-4.8A45 45 0 0 1 152 125l2.7-3.2q2.9-3.5 6.2-6.2c11.5-9.9 13.9-21.9 16.6-36.2A119 119 0 0 1 183 60"/><path fill="#454543" d="M280 87c-2.6 3.3-5.7 4-9.7 5.2l-3.6 1-2.7.8 3.2.8 4.2 1.1 2.1.6c5.3 1.4 5.3 1.4 7.5 2.5v2l2.9.5c5.4 1.5 9.4 5.5 13.1 9.5v2l5.1-2.7 3-1.7 6.8-3.9c2.5-1.4 4.3-2.3 7.1-2.7l1 4-2 .7c-5.1 2-9.7 3.9-14 7.3l-1 3 2 1c-2 2-2 2-4.7 2.1-4.1-1.4-5.2-3.2-7.4-6.7-2-1.8-2-1.8-5.5-1.3a71 71 0 0 0-16.9 5.2l-2.5.9-2.3.8c-2.1.9-2.1.9-2.7 4l2.2 1.2q4.3 2.8 7.9 6.3l2.6 2.3 2.3 2.2 1.6 1.5a42 42 0 0 1 6.2 9.1c1.2 2.4 1.2 2.4 1.2 5.4l1.8-1.5 2.5-1.9 2.3-2c2.3-1.5 3.8-2.2 6.4-2.6-.6 3.6-1.7 4.9-4.5 7.1s-2.7 2.1-4.5 4.9l3.7 1.1a89 89 0 0 1 12.3 5.2l3.4 1.7c2.6 2 2.6 2 3.5 5.2l.1 2.8h-3l-.8 2.2c-1.3 3-2.9 5.1-5 7.6L301 186l-1.7 2c-3 4.1-3.5 6.4-2.7 11.4s.7 5.1-.7 7.6l-1.5 1.9c-5.7 7.2-6.6 17.3-8.4 26.1l6 1 .4-2.8c.6-3.2.6-3.2 2.6-6.2l.6-3.5c1.4-3.5 1.4-3.5 3.3-4.4l4.3-1.3 1.8-.8c1.1-2.6 1.1-2.6 1-5h2v-2c3.4-1 6.5-1.1 10-1.1h3.1c2.5.1 4.5.4 6.9 1.1v2l2.2.6c3.7 1.8 5.4 4.1 7.8 7.4a35 35 0 0 1 1 17 30 30 0 0 1-11 11h-6l2-1v-2c1.6-1.6 1.6-1.6 3.8-3.3 4.3-3.7 6.9-6.3 7.6-12.1-.6-5.2-2.4-8.8-6.3-12.4a23 23 0 0 0-12.9-3.3h-3l-2.2.1.8 1.6c3.1 6 3.1 6 4.1 9.2 1.4 2.9 3.5 4.3 6.1 6.2 1.4 2.9 1.1 5.4 1.1 8.6l-.1 3.6v2.8l-6-4v3l4 1-1 2-5-1v-8l3-1v-5l-5-2-1 7h2l-1 3-8 1c1.4 2.8 3.6 3.6 6.2 5q2.5 1.4 4.8 3c.5 2.2.5 2.2.7 4.6l.2 2.5.1 1.9-3-1-.9-2.9c-.8-3.1-.8-3.1-2.7-4.3l-2.4-.8a75 75 0 0 1-15.6-7.6A35 35 0 0 0 279 238l-.9 2.8q-1.2 3.7-3.1 7.2h-2q-.1-4.9.6-9.7c.6-3.3.6-3.3-.6-6.3 3.4-.9 5.6-1 9 0l.1-1.8c.6-9.5 3.4-17.5 8.9-25.2v-2l-2.2 3c-2.4 2.9-2.4 2.9-5.6 3.4l-2.2-.4 2-3h3c1.3-3.6 2-6.1 2-10l-3-1c-2.3 5.3-2.3 5.3-3 11l-3 2-1 2c-2.8.3-2.8.3-6 0-2.5-2.1-3.8-3.7-4.3-7-.2-3.2.1-5.6 1.6-8.5 1.7-1.5 1.7-1.5 4.7-1.5v12l3 1-.4-3.1c.5-4.6 1.6-6.2 4.7-9.5 2.5-2 4.5-2.4 7.7-2.4l3 1 .3-1.8c.7-2.4 1.6-3.8 3.1-5.8l1.5-1.9 1.5-2.1 3-4 1.4-1.7 3.2-4.7h2v-3l-6-2v-2l-2.4-.3-3.6-.7-2.5-.4c-6.7-1.5-6.7-1.5-8.9-4.6q-1.4-3.4-2.6-7a41 41 0 0 0-8.1-12l-1.5-1.6a38 38 0 0 0-15.6-11.1c-1.8-1.3-1.8-1.3-2.3-4.8l-.1-4.2A24 24 0 0 0 251 102c-2-1.9-2-1.9-4-3 .2-1.8.2-1.8 1-4a42 42 0 0 1 32-8"/><path fill="#f0f0ec" d="M221 295h2l2.4 3.4 1.3 2.1 1.4 2.3 1.4 2.2c3.5 5.6 3.5 5.6 3.5 9l-4.4 2-2.4 1.1c-2.2.9-2.2.9-4.2.9v2l-3.3 1.5-4.4 2.1-2.2 1c-8.2 4-11.8 10.2-15.9 18.1L195 345q-2.3 4.4-4 9l-2 1-2.9 5.3q-2.2 4.2-4.7 8.3a17 17 0 0 0-2.4 9.4 23 23 0 0 0 7 5c-.6 2.9-.9 3.9-3 6l-7 1 1 2c2.5.7 2.5.7 5 1v5h-2l-1 3c-5.4.5-5.4.5-8.2-1.8-3.5-2.8-6.9-3.4-11.2-4.5a20 20 0 0 1-7.6-3.7v-2l-3-1v-2h19v-2l5-1v-2l-2.9.5q-6.6.8-13 .6l-2.4-.1H149c-.9-10.4-.9-10.4 1.3-14.3q2.3-2.5 4.7-4.7c1.1-2.3 1.1-3.5 1-6 0-11.9 2-20.1 8-30.2q2.3-4.3 4-8.8c3.7 1.4 4.9 3.1 6.7 6.6 1.4 2.9 1.4 2.9 3.3 5.4 5.6.5 5.6.5 10.7-1.5 2-2.1 3.1-3.8 4.5-6.3 2.5-4.1 5.3-6.3 9-9.1q5.3-4.2 10.2-8.8l1.9-1.8 1.8-1.6 1.5-1.5c1.6-1.6 1.6-1.6 3.4-4.4"/><path fill="#4f504d" d="M188 172h3c.3 4.1.1 7.3-1.3 11.1l-3.2 9.7-.7 2.5-1.5 4.9c-1.4 4.8-3 8.9-6.3 12.8-2.5 1.3-2.5 1.3-5.2 2.3-2.8 1.4-2.8 1.4-4.8 3.7-.9 4.3-.9 8.3-.9 12.7 0 5.4-1.4 10.2-3.1 15.3 7.9-.2 13.4-.7 20-5 3.4-.7 3.4-.7 6-1l-2 3h-2l2 2-3.1 1.8c-7.5 5.3-11.8 15.4-13.9 24.2l-.9 5.6c-1.2 6.8-2.5 11.1-7.6 15.9-1.8 1.5-1.8 1.5-2.5 4.5l3.6-.7c3.6-.5 4.3-.4 7.6 1.6l2.8 2.1c2.2.8 2.2.8 4 1v2l9 1 .7-2c1.6-3.8 3.8-6.9 6.1-10.2l2.7-4.1 1.3-1.9 4.5-6.7q4-6.3 8.7-12.1l2.4-3c2.9-2.2 4.8-2.5 8.4-2.5 5.8 1.3 9.9 4.7 14.1 8.8l1.6 1.4 3.1 3 3.7 3.5 2 1.8 1.6 1.6c1.1 1.4 1.1 1.4 1.1 4.4a18 18 0 0 1-10.3-6.2c-7.6-8.2-7.6-8.2-17.4-12.5-6.3 1.4-9.6 7.2-13.1 12.3l-1.3 1.8-3.9 5.6-1.2 1.7c-5.1 7.3-5.1 7.3-8.8 15.3h2l3 5 2 1 .9-1.9c1.1-2.1 1.1-2.1 3.1-3.1l2 5-1.4 1.1c-7 5.9-7 5.9-12.7 13-2.9 4.4-2.9 4.4-5.9 5.9-2.8.5-5.2.6-8 0-2.8-2.5-4.3-5.5-6.1-8.7-1.5-3.3-1.5-3.3-3.9-4.3l-.2 2.5a24 24 0 0 1-4.4 9.1 40 40 0 0 0-5.7 24c-.1 7.3-2.6 11.3-7.7 16.4l-.8 8.6-.2 2.4c-1.9-.8-1.9-.8-4-2-.9-2.9-.9-2.9-1-6 1.4-1.9 1.4-1.9 3-3l-2-1c3.9-6.9 3.9-6.9 5-8v-4.2c0-12.7 2-21.2 9-31.8 2.9-4.4 3.8-7.8 3-13-1.4-3.3-1.4-3.3-3-6v-2h-4l.1 2.5c-.1 4.3-1.2 8.1-2.4 12.3l-.7 2.4-2 6.8-1 3.4-2 6.6h-4l2.3-12.2.7-3.5c5.4-28.6 5.4-28.6 13-34.5 5.3-4.9 5.7-11.3 6.6-18.1.9-5.8 2.1-9.8 5.4-14.7h2v-3a49 49 0 0 0-21.4 13.6C150 267 150 267 147 267c.4-4.9 2.6-7.3 5.9-10.8l1.4-1.5 3.7-3.7h2l-.1-2.2v-3l-.1-2.9c.2-2.9.2-2.9 1.2-5.3 1.6-4.1 1.4-8.4 1.5-12.7.2-5.7 1.5-8.9 5.5-12.9q4-1.6 8-3c.9-2.1.9-2.1 1.4-4.7q2.7-10.2 6.3-20l1.2-3.6z"/><path fill="#3e3e3c" d="M221 125h2l1.6 7.9 1.3 6.8 3.2 15.9q3 15.3 6.9 30.4l3-2 .4 2 1.9 8.8.7 3.1.6 3 .6 2.7c1.4 4.2 4.7 6.2 8.1 8.8 9.4 7.2 9.4 7.2 12.8 10.9 2 1.8 3.2 2.3 5.9 2.7l.8-2.6a41 41 0 0 1 5.2-9.4l1-3-4-1 5-1 1-3h3l-.7-2.1c-.4-4 1.3-5.8 3.7-8.9l4 1c-.7 4.4-2.2 8-4 12l2.4-2.4c2.6-2.6 2.6-2.6 4.6-3.6-.4 3.3-1 5-2.9 7.7a35 35 0 0 0-4.3 10.4l-1 3.6-1.8 8.3h-8v2a47 47 0 0 1-21.7-14.7 49 49 0 0 0-10.5-7.6c-7.7-4.8-12-9.9-14.8-18.7a24 24 0 0 0-10-1l-2 2 2.2.6c3.6 1.8 4.9 4 6.8 7.4v2l2.1.6c7 3.4 11.5 10.2 15.9 16.4l3 4-1 2c-4.8-1.4-7.3-4.2-10.3-8l-1.4-1.7c-3.3-4-3.3-4-3.3-6.3l-3-1v-2h-4l-.2 2.6q-1.7 7.4-8 12c-2.6 2-3 4.3-3.8 7.4h-2l-.3 2.8c-.7 3.4-1.1 4.1-3.7 6.2-2.3 1.1-2.3 1.1-4.8 2a55 55 0 0 0-8.6 3.9c-2.6 1.1-2.6 1.1-5 .3L184 244l4-2-4-1 3.6-1.5 4.7-2.1 2.4-1c3.9-1.8 5.9-2.8 8.3-6.4l1-3c1.9-5.1 3.4-8 8-11h2c2.6-6.9 2.6-6.9 4-14-2.5-2.5-3.5-2.3-6.9-2.6l-2.9-.2-3.1-.3-6.1-.4-2.7-.2c-2.3-.3-2.3-.3-5.3-1.3v-3h3.5l4.7-.2h2.3c4.4-.2 6-.3 9.4-3.4l2.1-2.4h3q-4.3-8-10-15l1-2 10 3c2.4-3.7 2.2-5.7 2-10l-1-1 .3-6.1.2-2q1.1-15 2.5-29.9"/><path fill="#f2f2ee" d="M352 104v2l2.1.7c5.9 2.7 9.5 6.3 11.9 12.3a60 60 0 0 1-2.6 36.8L362 158c-3.5-1.2-3.8-1.9-5.7-5a82 82 0 0 0-19.8-20.8l-2.2-1.7Q320.2 120.2 303 116c1.3-3.9 3.7-5.3 7.2-7.1 3.4-1.7 6-2.9 9.8-2.9v-2c10.3-3.5 22.1-5.7 32 0"/><path fill="#4e4e4b" d="M220.4 190.5c4.6.6 5.8 1.9 8.6 5.5q2.9 4.4 5 9.3c1.5 2.4 3.4 2.7 6 3.7q10.4 6.8 18.8 16.1c3.5 3.7 8.1 5.5 12.7 7.7 2.5 1.2 2.5 1.2 3.5 2.2l-1 7-.5 3.4-.5 2.6h2l1 3a33 33 0 0 0 5 3l-1 2h-4v4l-4 1 .7 1.7c.5 3.3-.9 4.5-2.7 7.3l-2.9 7.8C266 280 266 280 263 282l-1.6-2.5c-2.2-2.8-2.2-2.8-5.6-2.8l-2.8.3v-4l-2.3-1.3c-2.7-1.7-2.7-1.7-4-5-.7-3.7-.5-6.1.3-9.7h-2v-2l-8-1-1-3c5.4-.3 8.5-.4 13 3l-.9-2.5q-2-6.7-2.8-13.6c-.8-5-2.3-8-5.3-11.9l4-1c-7.7-10.9-7.7-10.9-17.6-19.5-2.6-1.7-3.3-2.9-4.9-5.6-1.7-2.9-2.2-3.8-5.3-5.4l-2.2-.5c2-2.7 3-3 6.4-3.5"/><path fill="#3c3d3a" d="M317 254c2.8 2.8 2.4 4.5 2.4 8.4-.3 15.9-10.7 28-19.9 40.3l-1.4 1.8-1.1 1.5a16 16 0 0 0-3.6 11.1c.9 2.7 2.2 3.3 4.6 4.7l2.2 1.1 1.8 1.1v3l-3 2 .6 1.6c.5 2.9.1 5.1-.4 8l-.5 2.9c-.7 2.5-.7 2.5-2.7 4.5-4.1.5-6.3.4-9.9-1.6-2.1-2.4-2.1-2.4-2.5-5q.7-5.6 2.1-11c.3-2.5.1-4.1-.7-6.4-2.9 2.2-5 3.9-7 7h-2l-1-3 .1 2.8c-1.1 3.2-1.1 3.2-3 4.5A24 24 0 0 1 261 336l-.3-2.1q-1.5-9.2-4.7-17.9l-1-3-3-1c-.9-2.6-1.3-4.3-.2-6.9l3.2-5.1h2l1-4c2.9 1.3 5.1 2.5 7 5 .2 2.5.2 2.5-.1 5.4-.1 3.8-.1 5.3 1.8 8.7 2.4 2 4.3 3 7.3 3.9l1-6-1.8.6c-2.2.4-2.2.4-5.2-1.6-.2-3.6-.2-3.6 0-7 4 1.7 6.9 4 10 7v4l3.4.4c3.6.6 3.6.6 4.6 1.6-.6-3.6-1.8-5-4.6-7.3l-2.1-1.8-2.3-1.9c-10.2-8.6-10.2-8.6-14-14v-2c4.3.5 6.9 3.2 10 6 3.8 3.6 3.8 3.6 9 4l1-2 11 4 2-4 3.3-4.7A151 151 0 0 0 308 281h2l.4-1.8 1.6-5.8c1.3-5 1.6-10.2 2-15.4l3 1z"/><path fill="#f0f0ec" d="m245 262 2 1 .8 3.4c1 4.2 1 4.2 6.2 6.6l-1 14h2v-7c1.9.1 1.9.1 4 1 1.4 2.9 1.4 2.9 2 6l-2 3-1.9-.6c-2.1-.6-2.1-.6-4.1.6l-5-1 1 2h4c1 3.3 1.2 4.6-.2 7.8l-1.9 2.9-1.7 2.9c-2.6 2.8-4.5 3.5-8.2 4.4v2h-3c2-4.5 5.2-7.9 8.3-11.7 2-2.2 2-2.2 1.7-5.3-1.9.2-1.9.2-4 1-1.2 1.9-1.2 1.9-2 4l-2 3h-2l-1 4h-3q-2.1-3-4-6l-2.1-3.4-3.1-5.2c-1.8-3.2-1.8-3.2-4.8-5.4l-1 6h-2l-.7 2.2a20 20 0 0 1-6.1 7.3Q205 306 200 311c-1.9-.7-1.9-.7-4-2-.8-2.1-.8-2.1-1-4h-2a22 22 0 0 1 4.4-10.4l2.2-3.2 2.4-3.4 1.3-1.8C215 269.5 215 269.5 218 268c4-.4 6.3-.4 9.8 1.7l2.6 2.3 2.9 2.5q4.6 4.2 8.8 8.9c2.2 1.9 4.2 2.7 6.9 3.6a25 25 0 0 0-6.3-8c-1.5-1.5-1.5-1.5-2.7-3 .2-2.7.2-2.7 1-5l-1-2-3 1-1-3 1.7-.8c2.4-1.2 2.4-1.2 4.9-2.9zm-4 5 1 2Z"/><path fill="#f0efec" d="M243 315a46 46 0 0 1 3 21c-2 3-2 3-3.8 3.6l-2.2.4-2.5.5-2.6.4c-10.1 1.5-10.1 1.5-18.9 6.1q-2.6 4.7-4 10h-2l-.6 2c-3.2 6.8-9.3 12-14.7 17.2-1.9 1.9-1.9 1.9-3.7 4.8a17 17 0 0 1-6.9-2.2c-1.1-1.8-1.1-1.8-.9-4.6a27 27 0 0 1 4.2-8.9q6-9.4 10.9-19.5c3.6-7.1 7.4-14.3 14.8-17.9l2.8-1.4 3.1-1.5 10.2-5.7c2.8-1.3 2.8-1.3 6.8-1.3v-2c2.5-1.2 4.3-1.1 7-1"/><path fill="#50504d" d="M372.4 118.7c2.6.3 2.6.3 4.4 1.8a98 98 0 0 1 20.5 61.6l-.1 6.4q.1 9.3-1.2 18.5l-3-.1c-8.4-.6-8.4-.6-16.1 2.2-2.9 1.9-2.9 1.9-5.4 1.5-7.6-4.9-7.6-4.9-9.5-8.6-1.8-1-1.8-1-4-1.9l-2.4-1.1-2.6-1.1-2.6-1.2-6.4-2.7c3.2-1.8 5.3-2.3 9-1.7a36 36 0 0 1 14.2 8.8c1.8 2.1 1.8 2.1 4.8 2.9l.2-2.5.7-11.2.2-3.9.2-3.8.2-3.5a19 19 0 0 1 3.5-8.1 39 39 0 0 1 14 18v3h2c-.6-24.6-3.2-50.9-22-69v2.3l-.3 10.1-.1 3.5-.1 3.4-.1 3.2c-.4 2.5-.4 2.5-2.4 4.5l.4-12.8.1-4.3.2-6.2.1-3.8c.3-3.8.3-3.8 3.6-4.2"/><path fill="#41423d" d="M188 172h3c.3 4.1.1 7.3-1.3 11.1l-3.2 9.7-.7 2.5-1.5 4.9c-1.4 4.8-3 8.9-6.3 12.8-2.5 1.3-2.5 1.3-5.2 2.3-2.8 1.4-2.8 1.4-4.8 3.7-.9 4.3-.9 8.3-.9 12.7 0 5.4-1.4 10.2-3.1 15.3 7.9-.2 13.4-.7 20-5 3.4-.7 3.4-.7 6-1l-2 3h-2l2 2-3.1 1.8c-7.5 5.3-11.8 15.4-13.9 24.2l-.9 5.6c-1.2 6.7-2.4 11-7.6 15.7-1.7 1.7-1.7 1.7-2 4.3l-.5 2.4-2 .9c-2.2.9-2.2.9-2.7 3.1l-.4 2.5-.4 2.7-.5 2.8-2.4 10.2-.7 2.6q-1.7 7.3-4.9 14.2l-3-1 2.3-12.2.7-3.5c5.4-28.6 5.4-28.6 13-34.5 5.3-4.9 5.7-11.3 6.6-18.1.9-5.8 2.1-9.8 5.4-14.7h2v-3a49 49 0 0 0-21.4 13.6C150 267 150 267 147 267c.4-4.9 2.6-7.3 5.9-10.8l1.4-1.5 3.7-3.7h2l-.1-2.2v-3l-.1-2.9c.2-2.9.2-2.9 1.2-5.3 1.6-4.1 1.4-8.4 1.5-12.7.2-5.7 1.5-8.9 5.5-12.9q4-1.6 8-3c.9-2.1.9-2.1 1.4-4.7q2.7-10.2 6.3-20l1.2-3.6z"/><path fill="#f1f1ed" d="m292 112 1 3 3 1 1 2q4 1.4 8.3 2.4c5 1.4 9.4 2.6 13.7 5.6a62 62 0 0 1-10.2 8.8q-7.1 5.1-13.6 11.2c-5.5 5-5.5 5-8.2 5l-1.3-2.6-3.9-7.1C280 138 280 138 280 136l-1.7-.7c-3.8-2.1-6.7-5.2-9.9-8.2a24 24 0 0 0-6.4-4.1c1-2.5 1.6-3.7 3.9-5.1l2.3-.8 2.5-.9 2.7-.9 2.6-.9c10.6-3.8 10.6-3.8 16-2.4"/><path fill="#595956" d="M280 87c-2.6 3.3-5.7 4-9.7 5.2l-3.6 1-2.7.8 3.2.8 4.2 1.1 2.1.6c5.3 1.4 5.3 1.4 7.5 2.5v2l2.9.5c5.4 1.5 9.4 5.5 13.1 9.5v2l5.1-2.7 3-1.7 6.8-3.9c2.5-1.4 4.3-2.3 7.1-2.7l1 4-2 .7c-5.1 2-9.7 3.9-14 7.3l-1 3 2 1c-2 2-2 2-4.7 2.1-4.1-1.4-5.2-3.2-7.4-6.7-2-1.8-2-1.8-5.5-1.3-4.9.8-9.5 2.5-14.2 4.2l-2.5.9A23 23 0 0 0 260 124c-2.2.8-2.2.8-4 1-2.2-2.2-1.4-7.8-1.4-10.8-.2-4.8-1.1-8.1-3.6-12.2-2-1.9-2-1.9-4-3 .2-1.8.2-1.8 1-4a42 42 0 0 1 32-8"/><path fill="#f0efec" d="M351 152q5.5 5 8.2 12.1c2.3 3.7 4.6 4.5 8.5 5.9 4.4 1.9 4.4 1.9 6.3 4 .4 3 .5 5.5.4 8.4l-.1 2.5A94 94 0 0 1 372 204c-3.7-.4-5.6-2.3-8.3-4.7a48 48 0 0 0-9.6-5.5l-2-1.1A35 35 0 0 0 338 189q1.1-6.1 3.6-11.8l1.3-3.5 1.1-2.7h2l.3-1.9q1.7-8.8 4.7-17.1"/><path fill="#efeeeb" d="m370 122 2 1v2l3 1c7.8 9 13.3 20.4 16 32l.6 2.5c2.2 10.4 1.6 21 1.4 31.5h-2l-.8-2.1A47 47 0 0 0 367 165l-3-1 .8-4.1.5-2.2c.7-2.7.7-2.7 2.2-5.7 2.5-5.5 2.1-11.5 2.2-17.4l.1-3.7z"/><path fill="#f0f0ec" d="M338 96v2c-2.6 1.3-4.7 1.2-7.6 1.3-5.9.5-10.2 1.9-15.4 4.7l-2.3 1.2q-5.2 2.8-10.1 6.1C300 113 300 113 297 113q-3.6-3.4-6.9-7.1c-2.8-2.5-5.6-3.5-9.1-4.9v-2l-19-4c16.1-16.1 58.4-7.8 76 1"/><path fill="#f0f1ec" d="m211 95 3 1 .1 2.9.5 7.5a23 23 0 0 0 2.4 8.6l2 1c.3 6.5-.3 12.6-1.4 19.1q-.7 4.7-1.1 9.3l-.2 2.9-.4 5.6-.2 2.7-.2 2.3c-.6 2.6-1.5 3.5-3.5 5.1h-2l-.6-1.7c-2.5-7-6.2-12.6-10.5-18.6-3-4.3-3-6.2-2.4-11.3.8-3.7 2.4-6.3 4.5-9.4h2l.4-1.8 1.5-8.1.6-2.8.5-2.7.5-2.5c.5-2.1.5-2.1 1.5-4.1h2z"/><path fill="#f1f1ed" d="M336 138c4.7 2.2 8.8 4.9 12 9 2.3 9.5-5.9 23.2-9.9 31.6L335 186c-4-1.3-5.5-3.7-8-7v-2l-1.7-.8a34 34 0 0 1-6.6-4.8l-2.1-1.9-1.6-1.5c.6-3.9 2.5-6 5-9l3.7-5.2q6-8 12.3-15.8"/><path fill="#474645" d="M170 298c2.2 1.5 2.2 1.5 4 3 2.1.7 2.1.7 4 1v2l1.9.6c2.1 1.4 2.1 1.4 3 4.2l1.2 6.5c.6 2.8.6 2.8 3 4.1l1.9.6c-.4 2.3-.9 3.9-2.2 5.8-1.8 1.2-1.8 1.2-5 .9l-2.8-.7v-2h-2l-1.2-3.2c-1.5-3.4-3.4-6-5.8-8.8-2 .6-2 .6-4 2-1.1 2.4-1.1 2.4-1 5 1.4 1.7 1.4 1.7 3 3l-1.2 1.9-1.6 2.5-1.5 2.5a42 42 0 0 0-6 24.7c-.1 7.3-2.6 11.3-7.7 16.4l-.6 5.6-.2 3-.2 2.4c-1.9-.8-1.9-.8-4-2-.9-2.9-.9-2.9-1-6 1.4-1.9 1.4-1.9 3-3l-2-1c3.9-6.9 3.9-6.9 5-8v-4.2c0-12.7 2-21.2 9-31.8 2.9-4.4 3.8-7.8 3-13-1.4-3.3-1.4-3.3-3-6v-2h-3v-2h2l1-3c3.6-2.8 6.8-2 11-1"/><path fill="#454543" d="M281 254c4.2 2.5 7.1 4.5 9 9 .2 3.3.2 3.3 0 6h-3l-1.2-3.4c-1.4-3.7-1.4-3.7-4-4.5l-1.8-.1a64 64 0 0 0-7.8 15.2q-1.3 3.2-3.1 6.3c-1.4 2.4-1.4 2.4-.5 4.3 2 3 4.6 5.1 7.5 7.3 5.8 4.5 5.8 4.5 6.9 7.9-3.2.4-4.7.2-7.4-1.6L273 298l-3.6-3.2-1.8-1.5c-1.7-1.5-1.7-1.5-4.6-2.3a86 86 0 0 0 18.4 18.8q3 2.4 5.6 5.2c0 3.4 0 3.4-1 6l-1-4-7-1v-4l-1.6-.7a43 43 0 0 1-8.4-6.3v7l7 1-1 6c-3.6-.2-5-1-7.8-3.4-2.4-3.1-2.4-5.3-2.1-9.2s.3-3.9-1.4-7.2c-1.8-1.6-1.8-1.6-4.7-3.2l-1 4h-2l-.8 2.8c-1.7 4.5-1.7 4.5-4.2 6.2-2.7.2-2.7.2-5 0l-1 2-3-2 2.6-.9c4.7-2.9 7.2-7 9.4-12.1.2-2.7.2-2.7 0-5l-5 1v-3c9 0 9 0 11 1 .8-2.8 1.2-4.5.2-7.2-1.2-2.1-1.2-2.1-4.2-2.8v7h-2v-10h2v-5l.7 1.9c1.5 2.5 2.7 2.9 5.3 4.1l3 3a88 88 0 0 0 8-18l-1-3h5l-1-5 2.4.1c2.5.2 2.5.2 3.6-1.1"/><path fill="#424340" d="M318 208.9h3.1c2.5.1 4.5.4 6.9 1.1v2l2.2.7c3.7 1.7 5.4 4 7.8 7.3a35 35 0 0 1 1 17 29 29 0 0 1-11 11h-6l2-1v-2l3.8-3.3c4.3-3.7 6.9-6.2 7.6-12-.6-5.3-2.4-8.8-6.3-12.5a23 23 0 0 0-12.9-3.3l-3 .1H311l.8 1.6c3.1 6.1 3.1 6.1 4.1 9.2 1.4 3 3.5 4.3 6.1 6.2 1.4 2.9 1.1 5.4 1.1 8.7l-.1 3.6v2.7l-6-4v3l4 1-1 2-5-1v-8l3-1v-5l-5-2-1 7h-1v-5h-3l-.6 2.5c-1.4 2.5-1.4 2.5-4.3 3.5-3.5 0-4.6-.6-7.1-3a17 17 0 0 1 3-8l1-7-4 1c1-2 1-2 2.8-2.7l2.2-.6c2.2-.7 2.2-.7 4-1.7 1.1-2.5 1.1-2.5 1-5h2v-2c3.4-1 6.5-1.1 10-1.1"/><path fill="#eeeeea" d="M323.5 129.1q4.4 1.7 8.5 3.9c-.6 3.2-1.6 5.2-3.5 7.8l-1.5 2.1-1.6 2.3-3.3 4.5-1.6 2.3-5.8 8.1-1.6 2.3-1.1 1.6c-5-.6-8.9-2.8-13.3-5l-2.3-1.2-5.4-2.8c1.5-3.6 3.6-5.6 6.5-8.2l2.4-2.2c2.1-1.6 2.1-1.6 4.1-1.6l1-3q4.9-3.6 10-7l1.8-1.3c2.4-1.8 3.7-2.7 6.7-2.6"/><path fill="#434341" d="M299.2 83.6h3.3c9.1.1 16.9 1.7 25.5 4.4l8 2v2l1.6.4a53 53 0 0 1 15.2 7.6c2.2 1.3 2.2 1.3 4.4.3 2-1.2 2-1.2 2.8-3.3h4c-.9 4.8-.9 4.8-1.7 7l-.3 2q2.8 3.3 6 6.2l1.7 1.7 4.3 4.1-1 2h-3v2.2l-.4 10.2-.1 3.5C369 153 369 153 365 157c-1-4-.8-6.9 0-10.9 1.6-10.1 3.1-21.8-2-31.1-2.5-3.1-5-5-8.3-7.2L352 106v-2a43 43 0 0 0-29.7.4c-2.5.6-3.9.4-6.3-.4h3v-2c4-3.1 7.4-3.5 12.3-3.7l3.8-.2 2.9-.1v-2l-2.1-.5-3-.8-3.2-.8q-3.4-.8-6.8-2a85 85 0 0 0-29.8-3.2l-5 .1-12.1.2v-3a107 107 0 0 1 23.2-2.4"/><path fill="#f0f0ed" d="M221 125h2l1.6 7.9 1.3 6.8 3.2 15.9a369 369 0 0 0 5 22.7c2.1 7.8 3.1 15.6 3.9 23.7a36 36 0 0 1-7.4-9.1 14 14 0 0 0-6.2-6.1c-3.6-1.9-4.6-3.2-6.4-6.8l-2-1c.5-3.4 1.1-5.1 3-8 .3-3.6.3-3.6 0-7l-1-1 .3-6.1.2-2q1.1-15 2.5-29.9"/><path fill="#3b3c38" d="M138 85h3l-.2 16.2v5.5l-.1 8v2.4A21 21 0 0 1 135 132a39 39 0 0 1-8 3.8 33 33 0 0 0-13 7.2c-1.4 3.6-1.4 3.6-2 7h-2l-.3 3.1c-2 17.6-5.6 32.7-19.7 44.9-2.8.8-2.8.8-5 1 .6-4.1 2.7-6.2 5.3-9.2a62 62 0 0 0 13.1-32.3c2.9-16.7 2.9-16.7 9.2-21.9 4.7-3.1 10-4.8 15.4-6.6 2.7-.8 2.7-.8 5-2l1-3h2v-2.7l-.1-10.1-.1-4.4C135.7 92 135.7 92 138 85"/><path fill="#eae9e7" d="M220.4 190.5c4.6.6 5.8 1.9 8.6 5.5q2.9 4.4 5 9.3c1.5 2.4 3.4 2.7 6 3.7q10.4 6.8 18.8 16.1c3.5 3.7 8.1 5.5 12.7 7.7 2.5 1.2 2.5 1.2 3.5 2.2-.4 4.1-.9 7.5-3 11a71 71 0 0 1-25-18v-2l-1.7-.6c-3.2-1.9-5-4.7-7.1-7.6-3.6-5-7.3-9-12.2-12.8-4.7-4.4-4.7-4.4-6-7.2-1.4-2.6-3.2-2.9-6-3.8 2-2.7 3-3 6.4-3.5"/><path fill="#ecede8" d="M258 296c2.9 1.3 5.1 2.5 7 5 .2 2.5.2 2.5-.1 5.4-.1 3.8-.1 5.3 1.8 8.7 2.4 2 4.3 3 7.3 3.9l1-6-1.8.6c-2.2.4-2.2.4-5.2-1.6-.2-3.6-.2-3.6 0-7 4 1.7 6.9 4 10 7v4h5c.9 2 .9 2 1 5a39 39 0 0 1-6 8h-2l-1-3 .1 2.8c-1.1 3.2-1.1 3.2-3 4.5A24 24 0 0 1 261 336l-.3-2.1q-1.5-9.2-4.7-17.9l-1-3-3-1c-.9-2.6-1.3-4.3-.2-6.9l3.2-5.1h2z"/><path fill="#eeedeb" d="M326.2 214.6c4.8 2.7 8.1 6.1 9.8 11.4.6 5.7-.4 8.5-4 13q-2.8 3-6 6h-2v2l4 2-11 1-1 3-1.6-2.3a27 27 0 0 0-9.4-6.7v-2l1.7-.4 2.2-.5 2.3-.5c2-.5 2-.5 2.8-2.6h-2l1-7c4.9.9 4.9.9 6 2v5l-4 1 .6 1.7c.5 2.5.2 3.9-.6 6.3h5l-3-2v-3c3.9 1.9 3.9 1.9 5 3 .8-8.1.8-8.1-2.4-15.1L317 228c-2.2-2.3-3-4.1-4.1-7l-1.1-2.7c-.8-2.3-.8-2.3-.8-4.3a20 20 0 0 1 15.2.6"/><path fill="#3d3d3b" d="M293 315c3.4.6 5.5 1.9 8.2 3.9l2.1 1.6a8 8 0 0 1 2.7 3.5c.3 5.3.3 5.3-1 7.9a21 21 0 0 0-1.8 7.5c-.7 3.7-1.2 5.6-3.2 8.8-4.3 2.6-8.1 2.7-13 1.8-2.9-1.8-4.5-2.9-6-6l-.1-6.6.1-3.6V331c-2.3 1.8-3 2.7-3.4 5.6l.1 3v2.9c.1 2.7.1 2.7 2.3 4.5q1.3 5.3 1.1 10.8v2.9c-.1 2.3-.1 2.3-1.1 3.3-6.2.6-6.2.6-9.4-1.8-1.6-2.2-1.6-2.2-1.6-5.2l4 1v2l4 1v-11l-5 1c-.6-1.9-.6-1.9-1-4l1-1 .6-4.1.4-3.9-12 1c1-3 1-3 3.2-4.2l2.7-1 2.8-1c2.3-.8 2.3-.8 4.3-.8l1-14h1v11l2.2-2.4c4.9-4.6 4.9-4.6 8.8-4.6l-.4 5.9-.3 3.3c-.3 2.8-.3 2.8-1.3 4.8-.4 3-.4 3 0 6 1.5 2 1.5 2 4 3 3.6.3 3.6.3 7 0 2-2 1.8-5.3 2.2-7.9l.6-3.9.2-3.2-2-2 5-1v-3l-2.2-.8a22 22 0 0 1-6.8-4.2z"/><path fill="#42413e" d="m245 312 2.3.5c2.7.6 2.7.6 5.7.5h2c4 7.5 6.1 14.5 7 23l2.4.9 4.6 2.1c-1.9 1.9-5.2 1.4-7.8 1.6s-2.5.3-5.2 2.4q-3.5.3-7.1.4c-5.3.3-9.8.9-14.6 2.9-3.8 1.2-7.8 1.5-11.8 1.9-2.7.5-2.7.5-3.7 3.1l-.8 2.7-2.6 4.8-1.4 2.4-1 1.8-4-2 1-4h2l.5-2.1.7-2.7.8-2.7c1.2-3 2.1-3.9 5-5.5a110 110 0 0 1 9.8-2.6l11.6-2.5 3.6-.9c1.3-2.6 1.1-4.7 1.1-7.6l-.1-3.1V325l2-1 .1 6.4v3.6c-.1 3-.1 3-1.1 5h2c.3-9.2-.1-18.2-3-27"/><path fill="#3a3a36" d="m197 121 1 2h2l-.7 1.8-.8 2.3-.8 2.3c-1.1 4.3-1.3 7.3.7 11.3l1.8 2.7 1.9 2.9 1.9 2.7c3.2 4.7 5.6 8.2 6 14 3.8-1.2 3.8-1.2 6.3-4.1l.7-1.9v6l-4 1-2 9-5-1c-1.2-2.4-1.1-3.9-1.2-6.6-.6-6.1-3.2-9.6-6.8-14.4l-3.9-5.4-1.8-2.5C191 141 191 141 191 139c-8.8 3.1-8.8 3.1-15.1 9.4l-.9 3.6a57 57 0 0 1-9 18h-3a19 19 0 0 1 3.4-10.8 20 20 0 0 0 3.6-9.4c.8-4.8 2-6.9 6-9.8l7.7-3.8c4.3-2.3 6.1-5.8 8.4-9.9 1.9-3.3 1.9-3.3 4.9-5.3"/><path fill="#585855" d="M130 213h1c5.4 26 5.4 26-1.4 37.4l-3.1 4.3c-4.9 7.5-5 14-5.2 22.7l-.1 3.7-.2 8.9h2l.3-3.1c.7-3.9 1.8-6.5 3.7-9.9h3q-1.2 8.5-3.1 16.9l-.5 2.7-1.4 6.4-3-2-3 1c-5.3-34.4-5.3-34.4 0-46l4-5c5.2-8.1 4.3-17.1 4-26.3 0-3.4 0-6.4 1-9.7z"/><path fill="#4b4b48" d="m143 139 1 4h2l1-2q-.6 12.7-3 25.3l-.5 3.1c-1.4 7.5-1.4 7.5-2.5 8.6l-.1 3.9c-.6 6.3-4.2 10.3-7.9 15.1-2.5 3.7-2.4 6.7-2.5 10.9-.3 8.6-.3 8.6-2.5 12.1h-2l-1-12h-2l-.7 2.3q-2.8 7.6-6.3 14.7c-2-2-2-2-2.1-5.9.9-6.5 4.6-11.6 8.1-17.1l1.8-2.9c4.7-7.5 4.7-7.5 6.7-9.9 5.1-6.7 5.9-13.3 6.7-21.5l.9-7.5.4-3.3c.5-2.7 1.2-4.5 2.5-6.9l1.1-5.7.5-3z"/><path fill="#3f3e3c" d="M188 172h3c.3 4.1.1 7.3-1.3 11.1l-3.2 9.7-.7 2.5-1.5 4.9c-1.4 4.8-3 8.9-6.3 12.8-2.5 1.3-2.5 1.3-5.2 2.3-2.8 1.4-2.8 1.4-4.8 3.7-.9 4.3-.9 8.3-.9 12.7 0 5.4-1.4 10.2-3.1 15.3l4 1h-6l-1 2h2c.4 2.8.4 2.8 0 6l-4.2 2.9c-2.8 1.8-4.9 4.2-7.2 6.7-1.6 1.4-1.6 1.4-4.6 1.4.4-4.9 2.6-7.3 5.9-10.8l1.4-1.5 3.7-3.7h2l-.1-2.2v-3l-.1-2.9c.2-2.9.2-2.9 1.2-5.3 1.6-4.1 1.4-8.4 1.5-12.7.2-5.7 1.5-8.9 5.5-12.9q4-1.6 8-3c.9-2.1.9-2.1 1.4-4.7q2.7-10.2 6.3-20l1.2-3.6z"/><path fill="#4e4d4b" d="m285 195 4 1c-.7 4.4-2.2 8-4 12l2.4-2.4c2.6-2.6 2.6-2.6 4.6-3.6-.4 3.3-1 5-2.9 7.7a35 35 0 0 0-4.3 10.4l-1 3.6-1.8 8.3h-8v2a47 47 0 0 1-22-15l2-1 1-3c6.5 5.5 6.5 5.5 9.2 8.3a9 9 0 0 0 5.8 2.7l.7-2.6c1.4-3.6 3.2-6.3 5.3-9.4l1-3-4-1 5-1 1-3h3l-.8-2.1c-.3-4 1.4-5.8 3.8-8.9"/><path fill="#eeeeeb" d="M250 237c4.4 2.1 8.6 4.3 12 8q.8 3.3.7 6.8c.5 3.9 2.5 5.5 5.3 8.2 2.7 1.8 2.7 1.8 5 3l-.8 2.1-2.4 5.9-1.2 3.2-1.3 3.2C266 280 266 280 263 282a36 36 0 0 1-6-7c.3-3.3.3-3.3 1-7q-.3-5.1-2-10l-3-2q-1-3.6-1.7-7.4l-.4-2a52 52 0 0 1-.9-9.6"/><path fill="#ebece8" d="M178 373c1 2 1 2 1.2 3.9 1.3 3.3 3.9 4.3 6.8 6.1-.6 2.9-.9 3.9-3 6l-7 1 1 2c2.5.7 2.5.7 5 1v5h-2l-1 3c-5.4.5-5.4.5-8.2-1.8-3.5-2.8-6.9-3.4-11.2-4.5a20 20 0 0 1-7.6-3.7v-2l-3-1v-2h19v-2l2.4-.2 2.6-.8c1.2-2.3 1.2-2.3 2-5z"/><path fill="#3a3a38" d="M281 254c4.2 2.5 7.1 4.5 9 9 .2 3.3.2 3.3 0 6h-3l-1.2-3.4c-1.4-3.7-1.4-3.7-4-4.5l-1.8-.1a64 64 0 0 0-7.8 15.2q-1.3 3.2-3.1 6.3c-1.4 2.4-1.4 2.4-.5 4.3 2 3 4.6 5.1 7.5 7.3 5.8 4.5 5.8 4.5 6.9 7.9-3.2.4-4.7.2-7.4-1.6L273 298l-1.9-1.5c-3.7-3.1-3.7-3.1-5.1-4.5v-2h-4v-3c-2.6-4.6-2.6-4.6-7-7v7h-2v-10h2v-5l.7 1.9c1.5 2.5 2.7 2.9 5.3 4.1l3 3a88 88 0 0 0 8-18l-1-3h5l-1-5 2.4.1c2.5.2 2.5.2 3.6-1.1"/><path fill="#f6f6f3" d="m245 262 2 1 .8 3.4c1 4.2 1 4.2 6.2 6.6l-1 14h2v-7c1.9.1 1.9.1 4 1 1.4 2.9 1.4 2.9 2 6l-2 3-1.9-.6c-2.1-.6-2.1-.6-4.1.6l-5-1 1 2h4c1 3.3 1.2 4.6-.2 7.8l-1.9 2.9-1.7 2.9c-2.6 2.8-4.5 3.5-8.2 4.4v2h-3c2-4.5 5.2-7.9 8.3-11.7 2-2.2 2-2.2 1.7-5.3l-3 1 .6-3.4c.7-3.4.7-3.4-.6-5.6l4 1a25 25 0 0 0-6.3-8c-1.5-1.5-1.5-1.5-2.7-3 .2-2.7.2-2.7 1-5l-1-2-3 1-1-3 1.7-.8c2.4-1.2 2.4-1.2 4.9-2.9zm-4 5 1 2Z"/><path fill="#5b5b57" d="M143 378h1v10l-5 2v2h7v1h-7l.5 1.9c.7 4.4.6 8.7.5 13.1h-2l-3-8c-2.3 3.7-2.4 7.5-2.8 11.7A33 33 0 0 1 126 429l-1.7 2.8c-3.5 5.2-3.5 5.2-5.3 7.2h-4c.3-4.6 1.5-7 4.6-10.4 7.8-9 8.4-18.5 9.6-29.9q.8-8.6 3.8-16.7l.4 1.9c.4 2.1.4 2.1 1.6 3.1l1.5-1.7 1.9-2.2 2-2.3z"/><path fill="#edeeea" d="M155 304h4l2 3.5 1.1 2c1.8 5.2 1.5 9.2-.7 14.1l-2.2 3.5-4.2 6.9-1.7 2.8c-1.9 4.6-1.9 9.1-2 14.1l-.1 2.9-.2 7.2h-1l-1-17-3-1v-3h-3l1-2h2c4.7-17 4.7-17 9-34"/><path fill="#51524e" d="m217 103 2.4.6c2.6.7 2.6.7 4.6-.6 3.1 4.2 3.3 7.6 3 12.6-.4 15.2 3.2 29.7 6.8 44.4l3.1 13.8.7 3.7c.5 4.1.1 7.4-.6 11.5-6.4-9.6-7.3-25.1-9.5-36.3l-2.7-13.9-1.1-5.1-.7-3.7h2l-.3-3-.3-3.8-.3-3.8c-.1-3.4-.1-3.4.9-6.4h-4l-1 2v-2h-2z"/><path fill="#efefed" d="M256 100c8.9-.5 16-.2 24 4l3.1 1.6 1.9 1.4v2l-3.3 1-4.3 1.3-2.1.6A59 59 0 0 0 262 118h-2l-.1-2a30 30 0 0 0-3.9-14z"/><path fill="#494846" d="m190 306-2 3c-.3 3.1-.3 3.1 0 6 1 1.2 1 1.2 3.1 1.3 3.8-.4 6.5-1.7 9.9-3.3-1.6 3.8-4.1 6.1-7 9l-2.1 3.1c-2.9 4.4-2.9 4.4-5.9 5.9-2.8.5-5.2.6-8 0-2.8-2.5-4.3-5.5-6.1-8.7-1.5-3.3-1.5-3.3-3.9-4.3l-1 3-3-1c.7-3.4.7-3.4 2-7 2.1-1.2 2.1-1.2 4-2 4 4.1 6.7 7 7 13h2v2c4.2.4 4.2.4 7.8-1.3 1.4-1.8 1.4-1.8 2.2-4.7l-1.9-.3c-2.1-.7-2.1-.7-4.1-3.7v-7l-3-1v-2c3.3-1.6 6.4-.5 10 0"/><path fill="#3b3b36" d="M182 53c3.4.7 3.4.7 6 2v2h30l-1 3v-2h-28l-2 8-2 2-1-5-2 1v-4h-3v2c-4.6 2.6-9 3.9-14.1 5.1l-2.3.5q-9.2 2-18.6 3.4v-4l3.5-.7c16.7-3.2 16.7-3.2 31.4-11.2z"/><path fill="#555651" d="M238 184a27 27 0 0 1 3 8.2l.5 2.4.9 4.9.5 2.4.4 2.2c1.5 4.3 5.6 6.2 9.3 8.5l1.4 1.4v4c-3.3-.5-5.5-1.9-8.2-3.8l-4-2.5c-6.4-4-11.7-8.5-13.7-16.1-.8-2.7-.8-2.7-3-3.4q-3-.7-6.1-1.2v-1l6.1.1c2 0 2 0 3.9-1.1l8 12-.6-5.7c-.5-4.4-.4-7.3 1.6-11.3"/><path fill="#ecebe9" d="M288 323c2 0 2 0 3.6 1.4 1.4 1.6 1.4 1.6 1.4 3.6l6 1c1.2 3.5.9 6.1.2 9.6l-.5 2.9c-.7 2.5-.7 2.5-2.7 4.5-4.1.5-6.3.4-9.9-1.6-2.1-2.4-2.1-2.4-2.6-5.1a39 39 0 0 1 2.8-9.4q1.2-3.4 1.7-6.9"/><path fill="#e5e4e2" d="M165 301c2.5.4 3.9.9 5.9 2.5a21 21 0 0 0 7.2 3.1c2.7 1 2.7 1 4.9 2.4 1 2.4 1.4 4.4 1.5 7 .3 2.2.3 2.2 2.5 3.3l2 .7c-.4 2.3-.9 3.9-2.2 5.8-1.8 1.2-1.8 1.2-5 .9l-2.8-.7v-2h-2l-1.1-3c-1.3-3.2-3-5.4-5.5-7.9A20 20 0 0 1 165 301"/><path fill="#f0f0ec" d="M139 393c6.3 0 8 .1 13 3q.5 5 0 10c-2.5 2.6-2.5 2.6-5 4l-4-3-1.1 1.9c-2.7 2.9-5.1 2.8-8.9 3.1l-1 6h-1c-.2-6.9 0-13.1 4-19 3 5.6 3 5.6 3 9h2z"/><path fill="#444540" d="M260 123c5.5.1 8.4 2.7 12.2 6.4l1.6 1.5 5.9 5.6q2.6 3 4.5 6.5l1.6 2.6c1.2 2.4 1.2 2.4 1.2 5.4l1.8-1.5 2.5-1.9 2.3-2c2.3-1.5 3.8-2.2 6.4-2.6-.6 3.6-1.6 4.8-4.5 6.9-2.6 2.1-3.4 2.8-4.4 6l-.1 2.1c-3-.2-4.5-.4-7-2-1.2-2.4-1.2-2.4-2.2-5.4A53 53 0 0 0 258 125z"/><path fill="#e8e8e4" d="M221 125h2l.4 2.2 2 9.8.6 3.4q1.4 7.2 3.2 14.2a11 11 0 0 1-.2 7.4l-1-1-2 2-1-2c-2.5.3-2.5.3-5 1l-1 2-1-1 .3-6.1.2-2q1.1-15 2.5-29.9"/><path fill="#f7f7f2" d="M116 347h2c.5 8.7-.1 15.9-3 24.2q-1.3 3.8-2 7.8l-2-2-2 1v-2l-3-1c-.8-9.4 0-14.7 6-22l2.2-3.6z"/><path fill="#e9e9e5" d="M326.2 214.6c4.8 2.7 8.1 6.1 9.8 11.4v7a29 29 0 0 1-3-9c-1.7-.9-1.7-.9-4-1-3.8 2.1-6.5 3.8-8 8-5.8-4-8-8.3-10-15v-2a20 20 0 0 1 15.2.6"/><path fill="#3a3b38" d="M184 53h39c-.6 6.1-1.1 11.3-2.6 17.1l-.8 3.4-.6 2.5-4 1 .4-7.2.1-2c.2-4.2.9-6.8 2.5-10.8h-30v-2h-5z"/><path fill="#373632" d="M299.2 83.6h3.3c9.1.1 16.9 1.7 25.5 4.4l8 2c-1.4 2.1-1.4 2.1-4 4-3.9-.2-7.6-1.5-11.2-2.8-9.1-3-18.1-2.6-27.5-2.4h-5L276 89v-3a107 107 0 0 1 23.2-2.4"/><path fill="#4e4e4b" d="m346 156 3 2-.9 4.8-.6 2.7c-.5 2.5-.5 2.5-1.5 5.5h-2l-.3 2.1q-1.3 5-3.3 9.7l-1.3 3.5-1.1 2.7 3.7-.1c3.5 0 6.1.5 9.3 2.1-5.1 3.4-11 3.5-17 2.7-2.5-.9-3.2-1.7-4.6-3.9-1.4-3.7-1.7-5.2-.4-8.8l1.9 2c1.9 2.2 1.9 2.2 4.1 2l1-2.8c3.9-11.2 3.9-11.2 6.2-15.6 1.8-3.6 2.8-6.7 3.8-10.6"/><path fill="#ededea" d="M377 179c6.3 3.2 9.6 8.2 11.9 14.8.8 2.6 1.1 4.4 1.1 7.2l-2.3.4-2.9.5-3 .6q-3.4.6-6.8 1.5z"/><path fill="#41413f" d="M372.4 118.7c2.6.3 2.6.3 4.4 1.8a86 86 0 0 1 15.9 30.5c.3 2 .3 2 .3 6h-3l-.8-2.5A83 83 0 0 0 371 123v2.3l-.3 10.1-.1 3.5-.1 3.4-.1 3.2c-.4 2.5-.4 2.5-2.4 4.5l.4-12.8.1-4.3.2-6.2.1-3.8c.3-3.8.3-3.8 3.6-4.2"/><path fill="#4d4e4a" d="M120 255c1.3 2.5.9 3.9.6 6.6l-.3 2.5-.3 1.9h-2l1 19 1-13h1v18h2l.3-3.1c.7-3.9 1.8-6.5 3.7-9.9h3q-1.2 8.5-3.1 16.9l-.5 2.7-1.4 6.4-3-2-3 1c-5.2-33.7-5.2-33.7 0-46z"/><path fill="#535353" d="M280 87c-2.6 3.3-5.7 4-9.7 5.2l-3.6 1-2.7.8 3.2.8 4.2 1.1 2.1.5c5.3 1.4 5.3 1.4 7.5 3.6l-10-2 1 3-8.3.2-2.4.1h-4.4c-2.5-.4-3.4-1.3-4.9-3.3-.2-2.7-.2-2.7 0-5l10-4 2.4-1c5.6-2.1 9.6-2 15.6-1"/><path fill="#424240" d="M220 196c4 5.1 4 5.1 4 8l2.1.6c7 3.4 11.5 10.2 15.9 16.4l3 4-1 2c-4.8-1.4-7.3-4.2-10.3-8l-1.4-1.7c-3.3-4-3.3-4-3.3-6.3l-3-1v-2h-4l-1 5h-4q-.3-4.5.6-8.7l.4-2.3c-2.1-2.1-3.1-2.4-6-3v-2c2.9-.8 4.9-1 8-1"/><path fill="#464642" d="M220 124h1c.3 8.4-.4 16.6-1.3 24.9q-.9 7-.7 14.1l1 1c.4 4.3.4 6.3-2 9.9l-2 2.1v-2l-4-1c-.8-2.8-1.2-4.5-.3-7.2 1.3-1.8 1.3-1.8 4.3-2.8-1.1-1.2-1.1-1.2-3-2l1-1 .7-6 .4-3.7.4-4 .8-7.6.3-3.5c1.1-8.9 1.1-8.9 3.4-11.2"/><path fill="#4a4a46" d="M188 133c2.1 1.8 2.1 1.8 4 4-.2 2.3-.2 2.3-1 4v-2c-8.8 3.1-8.8 3.1-15.1 9.4l-.9 3.6a57 57 0 0 1-9 18h-3a19 19 0 0 1 3.4-10.8 20 20 0 0 0 3.6-9.4c.8-4.8 2-6.9 6-9.8q3.8-2.1 7.8-3.9c2.3-1 2.3-1 4.2-3.1"/><path fill="#474742" d="M138 85h3l-.2 16.2v5.5l-.1 8v2.4c-.1 6.2-2 10-5.7 14.9l-7-2 3-3h2l1-3h2v-2.7l-.1-10.1-.1-4.4C135.7 92 135.7 92 138 85"/><path fill="#4d4d4b" d="m272 244 1 4h2l1 3a33 33 0 0 0 5 3l-1 2h-4v4c-2.6 1.4-2.6 1.4-6 2-3.3-2-6.3-4.5-8-8l-.1-4.6.1-2.5V245c7.7-.1 7.7-.1 10 1z"/><path fill="#3e3d3a" d="M391 147c7.3 7.3 6.3 23.8 6.3 33.4v6.5q.2 10.1-1.3 20.1l-5-1 .6-1.7c.4-2.5.2-3.9-.6-6.3l4-1-1-3-.2-4.9-.1-2.9-.2-6c-.2-5.1-.6-9.4-2.5-14.2q-.5-2.4-.6-4.9l-.3-2.3-.1-1.8h3l-1-2.7c-1-3.3-1-3.3-1-7.3"/><path fill="#676765" d="M252 278h1v9h2v-7c1.9.1 1.9.1 4 1 1.4 2.9 1.4 2.9 2 6l-2 3-1.9-.6c-2.1-.6-2.1-.6-4.1.6l-5-1 1 2h4c1 3.3 1.2 4.6-.2 7.8l-1.9 2.9-1.7 2.9c-2.6 2.8-4.5 3.5-8.2 4.4v2h-3c2-4.5 5.2-7.9 8.3-11.7 2-2.2 2-2.2 1.7-5.3l-3 1 .6-3.4c.7-3.4.7-3.4-.6-5.6l4 1v-2h3z"/><path fill="#5c5c59" d="m149 408 2 3h2a27 27 0 0 1-4.6 7.1c-4.2 5.1-3.7 10.4-4.1 16.8-.3 3.1-.3 3.1-1.3 4.1h-5c-.6-18.4-.6-18.4 5.5-25.5l3.5-3.5z"/><path fill="#373833" d="M84 294c2.5 2.2 3.5 4 4.5 7.2q1.3 4.5 3.2 8.7c3.9 10.9-.5 21.6-3.7 32.1h-3l.4-4.7.2-2.6c.4-2.7.4-2.7 1.4-5.2a28 28 0 0 0-2-22.5c-1-3-1.1-5-1.1-8.2l.1-2.7z"/><path fill="#474642" d="m190 242-2 2h-2l2 2-3.2 2a25 25 0 0 0-7.8 9.4l-1 1.6h-2l-1-2-2 1v-3h2v-3l-10 3v-5h-2l1-4v2c11.6-1 11.6-1 22-6 3.5-1.2 3.5-1.2 6 0"/><path fill="#e3e2e0" d="M308 220h2c1.8 3.5 1.5 7.2 1 11q-1.7 4.1-5 7c-3.1 1.1-3.1 1.1-6 1-2.4-1.4-2.4-1.4-4-3a34 34 0 0 1 4-12c2.3-1.4 4.4-2.1 7-3z"/><path fill="#464542" d="M164 216c1.3 3.9 1.1 7.7 1.1 11.8l-.1 2.1v5.1l2-1-3 13 4 1h-6l-1 2h2c.4 2.8.4 2.8 0 6l-4.2 2.9c-2.8 1.8-4.9 4.2-7.2 6.7-1.6 1.4-1.6 1.4-4.6 1.4.4-4.9 2.6-7.3 5.9-10.8l1.4-1.5 3.7-3.7h2l-.1-2.2v-3l-.1-2.9c.2-2.9.2-2.9 1.2-5.3 1.3-3.5 1.4-7 1.6-10.7.3-7.5.3-7.5 1.4-10.9"/><path fill="#545453" d="M215 66h1v10l2-4 3-4c-.3 7.6-1 13.4-5 20l-2 4v-3h-2l-1 2c-2-1-2-1-2.7-2.8l-1.4-4.3c-.9-2.3-.9-2.3-3.9-3.9-.3-2.5-.3-2.5 0-5l2-2c2.1.4 2.1.4 4 1l.4 1.7.5 2.2.5 2.3c.4 2 .4 2 2.6 2.8z"/><path fill="#32312f" d="M361 108c4.1.5 6 2.6 8.8 5.6l4.2 4.4-1 2h-3l-.1 2.2-.3 10.2-.1 3.6c-.5 17-.5 17-4.5 21-1-4-.8-6.9-.1-10.9 1.7-10.3 2.9-21.5-1.9-31.1l-3-4z"/><path fill="#eaeae8" d="m291 202 1 3-3.6 5.4c-3.6 6.5-5 14.3-6.4 21.6l-7-1c-.8-2.1-.8-2.1-1-5l2.9-4.2c1.4-2.3 1.9-4.4 2.5-7 1.2-4.6 1.2-4.6 4.5-6.6l3.1-1.2c2.3-2.6 2.3-2.6 4-5"/><path fill="#545452" d="M188 301c3 0 3 0 5 1v3h2l3 5 2 1 .9-1.9c1.1-2.1 1.1-2.1 3.1-3.1l2 5c-4.7 4-4.7 4-7 4l-2.3 1c-2.8 1-4.7 1.3-7.7 1-2-2-2-2-2.3-5 .3-3 .3-3 2.3-5l-6-1 4-1z"/><path fill="#efefec" d="M263 291c4.3.5 6.9 3.3 10 6a54 54 0 0 0 18 10c-1.9 4.8-1.9 4.8-3 7-4.3-.5-7.1-3.3-10.2-6l-1.8-1.5a83 83 0 0 1-13-13.5z"/><path fill="#f3f2ee" d="M245 312c2.3.2 2.3.2 5 1 1.8 2.4 1.8 2.4 3.3 5.3l1.5 2.9c1.7 3.9 2.4 7.2 2.5 11.4v2.4l-.3 2c-3 2-3 2-7 2l-.3-3.9-.5-5.2-.2-2.6c-.5-5.1-1.4-8.8-4-13.3z"/><path fill="#494847" d="m245 256 4 1v3l7-3c3.9 12.9 3.9 12.9 1 20l-4-1v-3l-2.4-1.2c-2.6-1.8-2.6-1.8-4-5.1-.6-3.7-.5-6.1.4-9.7z"/><path fill="#5a5a58" d="M268 305c4 1.7 6.9 4 10 7v4h5c.9 2 .9 2 1 5a39 39 0 0 1-6 8h-2l-1-3-1 6h-1l-.1-6.1-.1-3.5c.2-3.5.9-6.2 2.2-9.4l-1.8.6c-2.2.4-2.2.4-5.2-1.6-.2-3.6-.2-3.6 0-7"/><path fill="#e1e1df" d="M220.4 190.5c4.6.6 5.8 1.9 8.6 5.5q2.1 3.4 4 7l3 5-3 3c-11.3-9.5-11.3-9.5-13-13.2-1.4-2.6-3.2-2.9-6-3.8 2-2.7 3-3 6.4-3.5"/><path fill="#484745" d="M151 340h1l.1 2.5.3 3.3.2 3.3c.2 3.1.2 3.1 2.4 5.9l1-13h1c1 19 1 19-2.9 24.1L151 369c-1.7 1.7-1.4 4.2-1.6 6.6l-.2 3-.2 2.4c-1.9-.8-1.9-.8-4-2-.9-2.9-.9-2.9-1-6 1.4-1.9 1.4-1.9 3-3l-2-1c3.9-6.9 3.9-6.9 5-8q.3-2.4.3-4.7l.1-2.9.2-3 .1-3z"/><path fill="#4d4c4b" d="M289 310a16 16 0 0 1 4 3l.3 2.9c.4 3.1.4 3.1 2.5 4.5l4.5 2.4 1.7 1.2v3c-5.6 2.1-5.6 2.1-9 1v-2l-3-1v-2h-2l-1 9h-1l.1-6.1c0-2 0-2-1.1-3.9l-2-1 2-4 1 1v-4h2z"/><path fill="#494844" d="M121 300h3q-.5 5.2-2 10.2a52 52 0 0 0-1.4 14.2c-.2 5.2-.2 5.2-2.6 7.6l-2 1a52 52 0 0 1 2-31h3z"/><path fill="#595957" d="M313 231c4.9.9 4.9.9 6 2v5l-4 1 .6 1.8a11 11 0 0 1-.6 6.2h5l-3-2v-3l1.9 1c2 1.1 2 1.1 4.1 1l3 1h-2v2l4 2-11 1-1 3-1.6-2.2a28 28 0 0 0-9.4-6.8v-2l1.7-.4 2.2-.5 2.3-.5c2-.4 2-.4 2.8-2.6h-2z"/><path fill="#40413d" d="M355 193q7.6 3.7 13.8 9.4c2.5 2.3 2.9 2.6 6.5 2.9l2.7-.3 2 2c-2.7 2.1-2.7 2.1-6 4-4.5-.8-7.7-4-11-7l-1-2c-1.8-1-1.8-1-4-1.9l-2.5-1.1-2.6-1.1-2.6-1.2-6.3-2.7a12 12 0 0 1 11-1"/><path fill="#3c3d38" d="M276 335h1l.1 2.1.3 2.8.2 2.7c.2 2.6.2 2.6 2.4 4.4q1.3 5.3 1.1 10.8v2.9c-.1 2.3-.1 2.3-1.1 3.3-6.2.6-6.2.6-9.4-1.8-1.6-2.2-1.6-2.2-1.6-5.2l4 1v2l4 1v-11l-5 1c-.6-1.9-.6-1.9-1-4l1-1 .6-4.1.4-3.9-3-1h4l1 8z"/><path fill="#4c4b49" d="M293 315c3.4.6 5.5 1.9 8.2 3.9l2.1 1.6a8 8 0 0 1 2.7 3.5c.3 5.3.3 5.3-.9 7.8-1.3 2.7-1.7 5.1-2.2 8l-.5 2.9-.4 2.3-1-3h-3l.3-2.6.3-3.3.4-3.3V330l-2-2 5-1v-3l-2.2-.8a22 22 0 0 1-6.8-4.2z"/><path fill="#f2f2f0" d="m249 220 2 1 2.4.3c3.3.9 4.6 2.3 6.9 4.8l2.1 2.2 1.6 1.7-2 1 1 5-3-1v-3h-2v2c-2.7.5-4.4.4-6.7-1.1q-2.5-2.2-4.3-4.9c.1-3.2.6-5.1 2-8"/><path fill="#464742" d="M129 406c2.6 4.6 2.7 8.8 2 14a44 44 0 0 1-5 9l-1.8 2.8c-3.4 5.3-3.4 5.3-5.2 7.2h-4c.3-4.6 1.5-7 4.6-10.4A43 43 0 0 0 129 406"/><path fill="#5a5a58" d="M393 172h1l1 25-4 1 1.1 2.8c.9 3.2.9 3.2-.1 6.2-16.4.2-16.4.2-22-3h2v-5l3 4 3-1c4.1-1.2 7.8-1.1 12-1l-.6-2.2c-.4-3.1 0-4.2 1.6-6.8h2z"/><path fill="#4a4a46" d="m197 339 4 4-6.3 11.8-1.8 3.4-1.8 3.3-1.6 3a22 22 0 0 1-4.5 5.5c-1.2-2.1-1.2-2.1-2-5 1.1-2.9 1.1-2.9 2.9-5.8l1.7-3 1.4-2.2h2l.3-2.2a30 30 0 0 1 3.3-8.1l1.3-2.7z"/><path fill="#403f3d" d="M203 151c1.8.5 1.8.5 4 2a22 22 0 0 1 3 10c3.8-1.2 3.8-1.2 6.3-4.1l.7-1.9v6l-4 1-2 9-5-1c-1.2-2.4-1.2-4.2-1.4-6.8-.3-4.2-1.1-6.8-3.6-10.2 0-2 0-2 2-4"/><path fill="#575852" d="M118 347h1l1 7 2-5h1c.5 12-1.9 19.8-8 30h-2c.4-4.5 1.1-8.4 2.5-12.6 2-6.4 2.2-12.8 2.5-19.4"/><path fill="#e6e6e2" d="m151 321 1 4 1 2h2c.8 2 .8 2 1 5-.8 1.7-.8 1.7-1.9 3.5a31 31 0 0 0-2.8 15.5l-.1 2.9-.2 7.1h-1l-1-17-3-1v-3h-3l1-2h2z"/><path fill="#50514e" d="m213 188 2 1v4c1.9 1.8 1.9 1.8 4 3l-7 1v2l-8.8-.4-2.5-.2-2.5-.1-2.2-.1c-2-.2-2-.2-5-1.2v-3h3.5l4.7-.2h2.3c4.4-.2 6-.4 9.6-3.4z"/><path fill="#6d6d69" d="m217 103 2.4.6c2.6.7 2.6.7 4.6-.6 3.2 4.3 3.3 8 3.1 13.2l-.1 4.5v2.2q.1 6.1 1 12.1h-2v7h-1l-2-12h2l-.3-3-.3-3.8-.3-3.8c-.1-3.4-.1-3.4.9-6.4h-4l-1 2v-2h-2z"/><path fill="#3f3f3d" d="M317 254c2.8 2.8 2.4 4.5 2.4 8.4A38 38 0 0 1 314 282l-3 2-2-1 1.4-3.5c2.3-6.9 2.8-14.2 3.6-21.5l3 1z"/><path fill="#6a6967" d="M185.4 53.7 188 55v2h30l-1 3v-2h-28l-2 8-2 2-1-5-2 1v-4h-3v2l-3 1-1-5c5.9-5.2 5.9-5.2 10.4-4.3"/><path fill="#474546" d="M249 308.1c2 .9 2 .9 3.3 3.4l.7 2.5c-3.2 0-5.1-.8-8-2l2 3c4.3 17.4 4.3 17.4 1 24h-2l.1-3v-3.8l.1-3.9c.1-3.5.1-3.5-2.2-6.3l-1-7h-6l1-4 3.4-1c6.8-2 6.8-2 7.6-1.9"/><path fill="#3f3e3c" d="m334 221 4 1a24 24 0 0 1 1 15 30 30 0 0 1-11 11h-6l2-1v-2c1.6-1.6 1.6-1.6 3.8-3.3 4.4-3.8 4.4-3.8 7.2-8.7.3-4.2 0-7.9-1-12"/><path fill="#474745" d="m344 95 2.3 1.4 3 1.7 2.9 1.8c2.7 1.4 2.7 1.4 5.1.4 1.8-1.2 1.8-1.2 2.7-3.3h4q-.6 3.6-1.6 7.2c-.6 1.9-.6 1.9.6 3.8l-4 3-3.5-2.4-2-1.3-1.5-1.3v-2l-1.7-.7A18 18 0 0 1 344 97z"/><path fill="#42423f" d="M150 304a54 54 0 0 1-3 34h-4l2.4-12.5.6-3.6q1.7-9 4-17.9"/><path fill="#504f4c" d="M363 153c1.6 1.6 1.6 1.6 3 4-.8 3.8-.8 3.8-2 7l1.7.3c2.8.8 4.7 2.1 7.1 3.8l2.4 1.6 1.8 1.3-2 5-1.5-1.2a38 38 0 0 0-10.4-6.4c-3.1-1.4-3.1-1.4-4.7-3.3-.6-2.9.3-4.5 1.6-7.1h2z"/><path fill="#484846" d="M312 225c4.4.5 6.8 3.1 10 6 1.4 2.9 1.1 5.4 1.1 8.6l-.1 3.6v2.8l-6-4v3l4 1-1 2-5-1v-8l3-1v-5l-2.4-.6-2.6-1.4c-.8-3.1-.8-3.1-1-6"/><path fill="#595955" d="M178 373c1 2 1 2 1.2 3.9 1.3 3.3 3.9 4.3 6.8 6.1-.6 2.9-.9 3.9-3 6-3.5.8-3.5.8-7 1l-4-4-4-2 2.4-.2 2.6-.8c1.2-2.3 1.2-2.3 2-5z"/><path fill="#535351" d="m145 367 2 3-1 1.6c-1.2 2.9-1.1 5.3-1 8.4h-3a21 21 0 0 0-3.9 6.1c-1.4 2.4-2.7 2.8-5.1 3.9.2-6.2.4-10.4 5-15l3.7-4.3z"/><path fill="#343331" d="M215 108h2l1 5h7l1-4-.3 2.2q-1 11.4.3 22.8l-1-4h-2v-5h-2l-1 6h-1v-15l-4-2z"/><path fill="#484846" d="m99 176 1 2h2a23 23 0 0 1-7.4 15.6l-1.4 1.6c-1.5 1.5-1.5 1.5-4.2 3.8h-4c.6-4.1 2.7-6.2 5.3-9.2 3.7-4.5 6.4-8.5 8.7-13.8"/><path fill="#393a35" d="m124 250 3 1c-.5 4.1-2 7.1-4.1 10.6-2.6 6.7-2.2 14.8-2.5 21.9l-.1 3.1-.3 7.4h-1a152 152 0 0 1-1-21.7V266h2l-.8-2.4c-.3-4.9 1.5-8.3 3.8-12.6z"/><path fill="#585954" d="M143 378h1v10l-5 2v2h7v1l-3.9.4c-3.4.3-3.4.3-6.1 2.6l-2-2 1-1h-4l.4-4.4.2-2.4c.4-2.2.4-2.2 2.4-4.2v5c3.6-2.7 6.3-5.5 9-9"/><path fill="#575653" d="M151 126c2 3 2.9 4.4 3 8l-3.7 4.3c-2.2 2.9-2.6 6.1-3.3 9.7l-1-4h-3l-2 7c-1.7-3.3-.7-6.3-.1-9.8 2-6 6.1-10.5 10.1-15.2"/><path fill="#e9e8e5" d="M109 357c1 2.8 1 3.9.1 6.8L108 366l1.4-1.5c1.6-1.5 1.6-1.5 3.6-1.5 2 4 2.1 6.4 1.1 10.8l-.6 3-.5 2.2-2-2-2 1v-2l-3-1-.2-6.2-.1-3.5c.3-3.6 1.2-5.4 3.3-8.3"/><path fill="#e1e1dd" d="m211 95 3 1v12c-2-1-2-1-3-4h-2l-1 4h2c1.3 4.3.6 6.9-1 11h-4c-1.6-3.2-.3-6.2.4-9.5l.4-2.1c1.1-5.1 1.1-5.1 2.2-7.4h2z"/><path fill="#535350" d="M201 207h3c-1 6.6-2.4 11.4-6 17l-3 6h-3c.8-7.6 2.2-12 7-18 1.2-2.7 1.2-2.7 2-5"/><path fill="#363632" d="m143 139 1 4h2l1-2c-.5 7.8-1.2 15.4-3 23h-2v7h-1v-9h-1c-.2-6.4-.1-11.9 2-18z"/><path fill="#494947" d="M87 272h1v8h2v-4l2 1-1 3.8a64 64 0 0 0-1.1 15.8v2.7l.1 6.7-2-1c-.6-1.7-.6-1.7-1-3.9a16 16 0 0 0-3-7.1q.3-4.6 1-9l.5-3.5z"/><path fill="#51504d" d="m326.5 209.5 1.5.5v2l2.2.6c3.7 1.9 5.3 4.1 7.8 7.4l-1 2h-4l-1.7-2.2a21 21 0 0 0-14.3-7.5l-3-.3v-2c3.7-1.9 8.5-1.3 12.5-.5"/><path fill="#42413f" d="m203 281 2 4-4.7 7.3-1.3 2.1a21 21 0 0 1-9 8.6c-1-3-1-3-.2-4.7l1.2-1.8 1.3-2 1.4-2.1 1.4-2.1c3.5-5.2 3.5-5.2 6.9-6.3z"/><path fill="#44453f" d="M188 172h3c.4 6-.9 10.4-3 16l-1.2 3.6-.8 2.4-4-1-1 5c-1.1-3.4-.9-5.2.4-8.4l1-2.6 1-2.6 1.9-5.1.9-2.3q1-2.4 1.8-5"/><path fill="#444442" d="M269 302c4.1.6 6.5 2.8 9.6 5.4l2.8 2.4 4.5 3.8c1.1 1.4 1.1 1.4.8 4.6l-.7 2.8-1-4-7-1v-4l-1.7-.6c-3.3-2-5-4.3-7.3-7.4z"/><path fill="#424242" d="M249 94c2.1.4 2.1.4 4 1l.3 1.7c.9 3 2.7 4.9 4.7 7.3 1.4 2.8 1.2 4.9 1 8-1 2.9-1 2.9-2 5h-1l-.3-1.8c-1.7-8.4-1.7-8.4-6.9-15.1L247 99c.9-3.9.9-3.9 2-5"/><path fill="#393937" d="M196 130c1 2 1 2 .8 4.8.2 3.9 1.4 5.7 3.7 8.9 3.5 5 3.5 5 3.5 8.3l-4 1-8-10 2-1c.4-2.6.4-2.6.6-5.5.3-5.4.3-5.4 1.4-6.5"/><path fill="#434340" d="M350 144c4.7 4.3 9.6 9.4 10.3 16l-.3 2-2 1-6-10-2 3-3 4q1.1-8 3-16"/><path fill="#373634" d="m184 53 32 1v3h-28v-2h-5z"/><path fill="#5a5a56" d="M118 218c1.1 3.3.8 4.7 0 8h-3l-.2 2.3c-1.1 3.6-2.7 4.6-5.8 6.7-2.8 1.3-2.8 1.3-5 2l-2-3h2l1-3 5-5 4-5 2 3z"/><path fill="#636361" d="M372.2 118.5c4.4.8 6.2 4 8.8 7.5-1 2-1 2-4 4l-6-7v2.3l-.4 10.1-.1 3.5-.1 3.4-.1 3.2c-.3 2.5-.3 2.5-2.3 4.5l.4-12.8.1-4.3.2-6.2.1-3.8c.3-3.7.3-3.7 3.4-4.4"/><path fill="#e8e8e6" d="M248 272h5a14 14 0 0 1 .1 8.8l-.6 2.4-.5 1.8c-3.9-.5-5.6-2.3-8.3-5.1l-2.1-2.2-1.6-1.7c1.9-.6 1.9-.6 4-1l2 2z"/><path fill="#dededd" d="m251 292 3 1c-.8 5.6-3.3 9.7-7 14-3.4 1.6-3.4 1.6-6 2v2h-3q2.3-4.9 5.9-8.9 4-4.8 7.1-10.1"/><path fill="#363533" d="M183 60c2.9 4.3 3.2 7.5 2.5 12.6l-.7 3.8-.5 2A74 74 0 0 1 180 92c-1-3.1-1-5.5-.6-8.7q.6-4.6.5-9.3c-.1-4.9 1.5-9.4 3.1-14"/><path fill="#eeedeb" d="m190 368 1 3-1 2 5 1a60 60 0 0 1-4 7 17 17 0 0 1-6.9-2.2c-1.1-1.8-1.1-1.8-.8-5l.7-2.8h3c1.7-1.4 1.7-1.4 3-3"/><path fill="#efefeb" d="M173 252c0 3 0 3-1.4 4.6L170 258l-1 2-7 2-2.4.6-1.6.4v-2l-2-1c4.6-4.2 10.6-8 17-8"/><path fill="#4b4b49" d="M228 189c4.9 4.4 9.4 10.2 10 17-3.3-.2-4.2-1.2-6.6-3.7a13 13 0 0 1-3.2-6.5c-.9-2.9-.9-2.9-3.1-3.6q-3-.7-6.1-1.2v-1l3.9.1 4.1-.1z"/><path fill="#50504d" d="M274 193v12l3 1 1-4v5l-7 2a10 10 0 0 1-3.4-8c.1-2.8.4-4 1.7-6.5 1.7-1.5 1.7-1.5 4.7-1.5"/><path fill="#41403f" d="m319 102 1 4-2 .7c-5.1 2-9.7 3.9-14 7.3l-1 3 2 1-2 2c-3.1-.4-3.1-.4-6-1l1.9-1.3c2.4-1.6 2.4-1.6 3.1-4.7l-2-1 5.7-3.9 3.2-2.2c6.3-3.9 6.3-3.9 10.1-3.9"/><path fill="#4f4f4d" d="m216 209 5 5c-4.4 6.6-4.4 6.6-7.2 8.6-2.6 2-3 4.3-3.8 7.4-1.2-3.6-.7-6.3 0-10l-2-1c3.7-3 3.7-3 6-3z"/><path fill="#262624" d="M396 171h1l.1 12v13.5q-.2 5.3-1.1 10.5l-5-1 .6-1.7c.4-2.5.2-3.9-.6-6.3l4-1-1-7h2z"/><path fill="#3a3b36" d="m295.1 83.7 3.8-.1 3.1.4 2 3-28 2v-3a88 88 0 0 1 19.1-2.3"/><path fill="#484644" d="m149 408 2 3h2c-1.7 3.9-4.3 6.8-7 10l-2 3c-2.8-1.4-3-3.2-4-6l3.4-3.9 1.9-2.2z"/><path fill="#3c3c39" d="M93 256h1l-.4 7.8-.2 2.2q-.2 5-1.4 10h-2v4h-2a54 54 0 0 1 2-20l2-1z"/><path fill="#545550" d="M164 216c1.3 3.9 1.1 7.7 1.1 11.8l-.1 2.1v5.1l2-1-3 13 4 1-2.9-.1c-3.2-.2-3.2-.2-5.1 2.1l-.1-4.7-.1-2.6c.2-2.7.2-2.7 1.2-5 1.3-3.6 1.4-7.1 1.6-10.8.3-7.5.3-7.5 1.4-10.9"/><path fill="#4a4a46" d="m176 380-3 1v2l-5 1v2h-18l-1-4 3.5-.2 4.7-.2 2.3-.2c5.6-.3 11-1.6 16.5-1.4"/><path fill="#40413c" d="M104 160c1 3.4.9 5.6 0 9h2c.7 6.5-1.3 10.7-5 16l-2 1c1.9-5.7 1.9-5.7 3-8h-2c-.2-4.6.5-8.1 2-12.4l1.1-3.2z"/><path fill="#42413e" d="m346 156 3 2-.9 4.8-.6 2.7c-.5 2.5-.5 2.5-1.5 5.5h-2l-.4 2.3c-.6 2.5-1.3 4.4-2.6 6.7h-2c.3-5.7 1.2-10 4-15.1 1.5-2.9 2.2-5.8 3-8.9"/><path fill="#f3f2f0" d="M156 315h1v5h4c-.6 3.9-1.7 6.8-4 10h-2v-3l-3 1c-1.1-3.3-.8-4.7 0-8h2v-3h2z"/><path fill="#464644" d="M271 98a31 31 0 0 1 21 9l-1 2-4.9-1.4-2.7-.7c-2.4-.9-2.4-.9-4.4-2.9l-3.6-1.4-3.4-1.6z"/><path fill="#d4d3cf" d="M134 399c2 1 2 1 3.1 3.4.9 2.6.9 2.6.9 5.6h2v-6h1v8c-6.9 2-6.9 2-8 2l-1 6h-1c-.2-6.9.8-12.4 3-19"/><path fill="#f5f4f2" d="M182 310v15a19 19 0 0 1-6.4-4.7c-.9-3.3-.2-6 .4-9.3 3-1 3-1 6-1"/><path fill="#3e3e3b" d="M235 273c4.3.5 6.3 2.9 9.3 5.9l2.7 2.7c2 2.4 2 2.4 2 5.4a21 21 0 0 1-10.9-6.6l-2.3-2.5-1.8-1.9z"/><path fill="#e8e8e6" d="M220.4 190.4c3.6.6 3.6.6 6 3.6l1.6 3-2 4c-2.4-.3-2.4-.3-5-1l-2-4c-2.6-1.3-2.6-1.3-5-2 1.9-2.8 3-3 6.4-3.6"/><path fill="#ebebe8" d="m165 107 4 1a76 76 0 0 1-12 12l-2 2v-2h-2l-1-5 7-1 2-6 4 1z"/><path fill="#32312f" d="m110 353 1 2-1.9 2.8c-3.4 5.4-2.9 11.9-3.1 18.2h-2l-1-5h-2c-.3-5.1 0-7.9 3-12l2-3h3z"/><path fill="#595955" d="m91 244 4 1v11h-2l-1 4h-2l.1 2.9C90 266 90 266 88 268l1.2-12.5.3-2.7.2-2.5A44 44 0 0 1 91 244"/><path fill="#3a3a39" d="M236 251c6.3-.4 9.1.1 14 4v-4h2l1 5h2v2l-7 3v-4l-2.4-.6-3-.7-3.1-.8-2.5-.9z"/><path fill="#50504d" d="M280 87c-3.9 4.5-9.7 5.7-15.4 6.2L259 93v-2h3v-2c6.5-2.7 11-3.2 18-2"/><path fill="#444541" d="m170 397 1.5 1.6c1.5 1.7 1.5 1.7 4.6 1.7s3 0 4.9-2.3l-1 4h-6v3h6v1c-4.9.6-7.3.2-11.3-2.9L165 400l-3-2-1-2c3.8-1.3 5.3-.5 9 1"/><path fill="#50514c" d="M320 86q4.1.7 8.1 1.9l2.3.6L336 90c-1.7 2-1.7 2-4 4-2 0-2 0-4.2-.6l-2.3-.7-2.5-.7-5.1-1.1-3.9-.9 1.9-.9c2.2-1 2.2-1 4.1-3.1"/><path fill="#54534f" d="M111 344q2.1 3.8 3 8l-1.9.9c-2.3.9-2.3.9-3.1 3.1l-3 1-3 6-2 1c0-6.7 3.2-10.5 7.2-15.6 1.8-2.3 1.8-2.3 2.8-4.4"/><path fill="#5b5a57" d="M276 335h1l.1 2.1.3 2.8.2 2.7c.2 2.6.2 2.6 2.4 4.4v5h-1l-1 9h-1v-11l-5 1c-.6-1.9-.6-1.9-1-4l1-1 .6-4.1.4-3.9-3-1h4l1 8z"/><path fill="#e5e5e3" d="m259 269 3 2v3l6-3c0 4.4-.9 6.3-3 10l-2 1-3.1-3.2-1.7-1.9c-1.2-1.9-1.2-1.9-.9-4 .7-1.9.7-1.9 1.7-3.9"/><path fill="#4e4e4b" d="M281 254c4.2 2.5 7.1 4.5 9 9 .2 3.3.2 3.3 0 6h-3l-1.1-3.2c-1.8-4.2-4.3-6.1-7.9-8.8l-2 2-1-4 2.4.1c2.5.2 2.5.2 3.6-1.1"/><path fill="#4d4d4b" d="M220 164c.3 4.2.4 6.4-2 9.9l-2 2.1v-2l-4-1c-.6-2.3-.6-2.3-1-5 2-3 2-3 3.9-3.7 2.1-.3 2.1-.3 5.1-.3"/><path fill="#3c3c39" d="M317 170c5.4 2.3 9.6 5.4 11.9 10.8l1.1 3.2-2 2a15 15 0 0 1-5.4-5.4c-1.8-3-3.8-4.6-6.6-6.6z"/><path fill="#575654" d="M291 318c4.1 1.5 7.5 3.3 11 6v3c-5.6 2.1-5.6 2.1-9 1v-2l-3-1z"/><path fill="#e1e1de" d="M263 291c6.2.7 10.9 6.7 15 11l-3 4-4.3-4.2-2.4-2.4c-5.3-5.5-5.3-5.5-5.3-8.4"/><path fill="#5e5e5b" d="M247 318c3.2 3.2 3 7 3.1 11.4v3.5l-.1 3.5v2.6l7-2v2c-2.7 1.4-5 1.1-8 1l-1 2-8-2 1.9-.9c2.3-.9 2.3-.9 3.1-3.1l.1-5.6-.1-3.1V325l2-1 .1 6.4v3.6c-.1 3-.1 3-1.1 5h2q.3-10.6-1-21"/><path fill="#e4e5e1" d="m300 300 .4 1.8 1.6 5.2h2l-2 4h-2l-2 3c-2.6.7-2.6.7-5 1 .6-4.1 1.9-6.8 4.1-10.3l1.6-2.7z"/><path fill="#4d4d4a" d="M139 154c3.2 4.2 3.3 5.1 3 10h1c.1 4.5.1 8.6-1 13l-4 1c.9-4.7.9-4.7 2-7h-3z"/><path fill="#4e4e4c" d="M216 96c3.4 1.7 4.9 2.8 7 6l-1 3-5-2 1 8-1-3h-2l-1 2V97z"/><path fill="#454540" d="M164 276h1l.1 1.9.3 2.5.2 2.5.4 2.1 2 1-6 7-3-1-1 2v-2l-3 1c1.2-3 2.7-4.7 5.1-6.8 3.2-3.1 3.7-5.7 3.9-10.2"/><path fill="#383936" d="M137 171h3l-.6 2.4-.4 2.6 2 2-.2 4.4-.3 2.4c-.5 2.2-.5 2.2-2.5 5.2h-2c-1.5-3-.9-5.6-.6-8.9l.2-3.8c.4-3.3.4-3.3 1.4-6.3"/><path fill="#434240" d="M240 207c3.9.6 6.5 1.7 9.8 3.8l2.4 1.5 1.8 1.7v4c-4-.6-6.7-2.7-10-5l-2.4-1.6-1.6-1.4z"/><path fill="#424240" d="m207 171 9 3v5l2 1c-2 3-2 3-4 4l-8-11z"/><path fill="#3e3d3b" d="M260 123c5.4.1 8.2 2.4 11.9 6.1l1.5 1.4 3.6 3.5-1 2-3-2v-2l-1.6.7c-3.7.4-5.3-1.4-8.1-3.6l-3-2.3-2.3-1.8z"/><path fill="#34342f" d="m154 338 3 1-.2 7.8-.1 2.2c-.1 2.2-.1 2.2-.7 6l-4 3v-18h2z"/><path fill="#f6f5f1" d="m252 327 5 1 .2 4.4.1 2.4-.3 2.2c-3 2-3 2-7 2v-6h2z"/><path fill="#444441" d="M293 315c4.9.9 8.5 3.5 12 7 1 3.4 1 3.4 1 6l-3-1v-3l-1.6-.2a27 27 0 0 1-8.4-4.8z"/><path fill="#41403d" d="m205 328 3 1c-.6 3.5-2.1 5.8-4.1 8.8l-1.6 2.4-1.3 1.8-3-1a21 21 0 0 1 7-13"/><path fill="#373834" d="m161 246 1 2 12-1c-1 4-1 4-3 5.3l-2.5 1-2.5 1c-2 .7-2 .7-3 .7v-5h-2z"/><path fill="#31322e" d="M126 198c2.1.4 2.1.4 4 1l.2 10.6c0 7.1 0 7.1-2.2 10.4h-2v-13h1v-5l-2 1-1-3z"/><path fill="#41413d" d="m232 162 1 3h2l1.6 7.5.4 2.1c1 5.1.9 9.3 0 14.4-1.9-2.9-2.4-4-2.9-7.3l-.7-5.1-.4-2.6q-1.1-6-1-12"/><path fill="#595a56" d="m173 97 4 5 2-3c-.5 5.6-1.7 8.6-5 13l-6-3 1.9-3.2c1.7-2.9 2.7-5.4 3.1-8.8"/><path fill="#383733" d="M84 294c3.7 3.3 5 7.2 6 12 0 2.8-.4 5.2-1 8h-2a49 49 0 0 1-3-20"/><path fill="#464644" d="m215.8 298.3 2.2.7c-3.6 4.6-7 8.1-12 11l-2-4 4.2-4 2.3-2.3c2.5-1.7 2.5-1.7 5.3-1.4"/><path fill="#40403e" d="M306 245c4.1.6 6.9 2.3 10 5q1.1 4.4 1 9l-3-1-.9-2.9c-.8-3.2-.8-3.2-3.1-4.3l-2-.8-2-2z"/><path fill="#e4e4e0" d="M151 321c.8 3.2 1.2 5.7 1.3 9v2.6c-.4 2.9-1.5 4.1-3.3 6.4-.3 2.7-.3 2.7 0 5l-3-1v-3h-3l1-2h2z"/><path fill="#4e4d4b" d="M322.8 123.6c4 .5 6.1 2 9.3 4.4-2 1-2 1-5 1l1 2-3.3-.6c-3.6-.4-4.8-.4-7.8 1.6v-2l-2-1c5-5 5-5 7.8-5.4"/><path fill="#5f5e5b" d="M259 108h1v10h-2v2h5l-1 3c-3.1 1.2-3.1 1.2-6 2-1-1-1-1-1.1-4.2v-3.9l.1-3.9v-3l2 4zm-3 11v2l2-1z"/><path fill="#73726e" d="M151 340h1l.1 2.5.3 3.3.2 3.3c.2 3.1.2 3.1 2.4 5.9l1-13h1l.1 9.4.1 2.7v4.9c-.2 2-.2 2-2.2 4l-1-3h-3z"/><path fill="#f0f0eb" d="M158 280h6c-.6 3.5-1.8 5.1-4.4 7.6l-1.8 1.7-1.8 1.7-3 3c-.1-3.2-.1-6 1-9l3-2z"/><path fill="#40403e" d="M252 236c6.6 1.2 11 3.4 16 8l1 2c-7.1-.8-12.3-2.3-17-8z"/><path fill="#504f4d" d="M341 138c3.1.2 4.7.8 7.2 2.6 1.8 2.4 1.8 2.4 1.8 5.6l-.7 3.6-.7 3.5-.6 2.7c-.7-2.3-1-4-.8-6.5 0-2.6 0-2.6-1.9-4.5l-2.3-1.8-2.3-1.8-1.7-1.4z"/><path fill="#d3d3d1" d="M179 380c4.8 1.9 4.8 1.9 7 3-.6 2.9-.9 3.9-3 6-3.1-.4-3.1-.4-6-1v-6z"/><path fill="#353430" d="M170 267h1c-.4 6.6-.9 12.7-3 19h-5l1-1.5c1-2.6 1.1-3.9 1-6.6 0-3.9 0-3.9 2-5.9v4h2l-.1-3.4c.1-3.6.1-3.6 1.1-5.6"/><path fill="#efeeea" d="M297 163h5v2l6 2v3c-2.5 2.2-2.5 2.2-5 4l-1.2-2.9c-1.8-3.1-2.5-4-5.8-5.1z"/><path fill="#61615e" d="M215 66h1v10l2-4 3-4-.4 5.9-.3 3.3C220 80 220 80 219 82h-5c-.1-5.4-.1-10.6 1-16"/><path fill="#2e2e2b" d="M276 333c1.3 2.6 1 4.2.7 7.1l-.3 2.7-.4 2.2-2 1v-9l-3.1 1c-3.4 1-6.4 1.2-9.9 1l1-3c4-1.8 6.8-2.3 11-1l2 1z"/><path fill="#e2e1dd" d="M123 304c2 1.8 2 1.8 4 4v3h-2l1 4-1.9 1.1c-2.9 2.7-2.8 5.1-3.1 8.9h-1c-.4-7.6.4-13.8 3-21"/><path fill="#3d3d3a" d="M364 200q3.2 1.3 5.9 3.6c2.8 1.8 4.8 1.5 8.1 1.4l2 2c-2.7 2.1-2.7 2.1-6 4-2.7-.5-2.7-.5-5-2-1.1-1.8-1.1-1.8-2-4z"/><path fill="#3b3a38" d="M280 112v2l-7.6 3-2.2.9A27 27 0 0 1 258 120v-2l8.7-3 2.5-.9 2.5-.8 2.2-.7c2.1-.6 2.1-.6 6.1-.6m-24 7 2 2h-2z"/><path fill="#6d6d6b" d="M259 93h5l2 2q3.3.9 6.5 1.5c6.3 1.3 6.3 1.3 8.5 3.5l-1.8-.4a97 97 0 0 0-16.2-2.1c-2-.5-2-.5-3.3-2.5zm12 5 1 3h-17l-1-2 7.4-.5 2.1-.1c5.3-.4 5.3-.4 7.5-.4"/><path fill="#eaeae8" d="m282.2 316.4 1.8.6c-.4 4.9-1.6 7.5-5 11h-2l-.2-4.8-.1-2.8.3-2.4c3-2 3-2 5.2-1.6"/><path fill="#696968" d="m245 256 4 1v3l5 1 1 8-3-1v-4h-3l-1 5h-1l-.6-4.3-.3-2.4c-.1-2.3-.1-2.3.9-5.3z"/><path fill="#3d3d3b" d="m278 256 3 2q-2.8 5.6-6 11l-3-1-1-8 2.4-.3c2.9-.5 2.9-.5 4.6-3.7"/><path fill="#e3e3e1" d="m291 202 1 3c-.9 1.8-.9 1.8-2.3 3.8A34 34 0 0 0 285 219l-1-4h-3v-5l2.7-1.2c3.4-1.9 5.1-3.7 7.3-6.8"/><path fill="#323230" d="M207 220h3c-.8 10.6-.8 10.6-3 15-1.5-1.2-1.5-1.2-3-3-.1-2.2-.1-2.2.2-4.5l.3-2.3c.5-2.2.5-2.2 2.5-5.2"/><path fill="#e7e6e4" d="M246 215c3.9 1.3 5.8 2.5 8 6l-2 2-3-3-2 6c-3.8-1.5-5.1-3.4-7-7h8l1-2h-3z"/><path fill="#30302d" d="M375 178h1l.2 13.1v5.4c-.2 2.8-1 4.9-2.2 7.5h-1c-.3-21.3-.3-21.3 2-26"/><path fill="#53544f" d="m200 112 1 3h2l3-3-3 10h-2l-1 2-3-2-2 1c1.1-2.9 1.8-4.8 4-7z"/><path fill="#454442" d="m271 266 4 4-4 9h-3l-1 3c-1.2-2.9-1-4 0-7l1.4-3.2 1.5-3.3z"/><path fill="#383735" d="M130 218h1l1 5.6.6 3.2q.6 4.6.4 9.2l-2-1-1 5h-1l-1-16h2z"/><path fill="#e8e8e6" d="M208 176c6 5.8 6 5.8 8 9v3l-6 3c-1.1-4.7-1.1-4.7 0-7l-1-1c-1-1-1-1-1.1-4.1z"/><path fill="#eaeae6" d="M277 350v11l-4-1c-1.8-3.4-1.8-3.4-3-7 1.6-3.2 3.6-3 7-3"/><path fill="#32312f" d="M312 225c4.4.5 7 3 10 6 .9 3.3.9 3.3 1 6h-3l-1.4-2.4c-1.3-2.8-1.3-2.8-3.8-3.4l-1.8-.2z"/><path fill="#dad9d6" d="M212 152h3c.4 7.5.4 7.5-1.4 10-1.6 1-1.6 1-3.6 1l-3-9h5z"/><path fill="#393836" d="M99 384h1c2.3 13.6 2.3 13.6 2 20h-4c-1.4-7-.4-13 1-20"/><path fill="#575654" d="M99 379c3 2 3 2 5 5 .6 6-.1 12.1-1 18h-1c-2.3-7.6-2.6-15.2-3-23"/><path fill="#3c3c3a" d="M282 197c1.1 3.2.9 3.9 0 7v2l-4 1-1-8zm-3 11-1 2h-6v-2c2.7-1.3 4.2-.7 7 0"/><path fill="#41403c" d="M386 142h3c1.7 2.6 2.4 4 3.1 6.9l.5 2.1c.4 2 .4 2 .4 6h-3l-2-5.2-1.1-3c-.9-2.8-.9-2.8-.9-6.8"/><path fill="#383836" d="M203 151c2.4 1 3.7 1.6 5.1 3.8 1 2.5 1.1 4.3 1 7v2.4l-.1 1.8-2-4-2 1-2-3.9-1.1-2.2c-.9-1.9-.9-1.9-.9-3.9z"/><path fill="#5b5b58" d="M220 124h1c.4 10.8-.8 21.3-2 32h-1v-17h-1l.4-6.4.2-3.6c.4-3 .4-3 2.4-5"/><path fill="#e8e8e6" d="M181 298h4l.4 1.9.6 2.1 2 1-1 2c-6.8.1-6.8.1-9-1v-2l-3-1 4-2v2l2-2z"/><path fill="#e4e4e0" d="m319 163 .3 1.9c.5 2.3.5 2.3 2.8 3.4l1.9.7v2h2v6l-1.4-1.2-1.8-1.6-2-1.7c-1.9-1.6-1.9-1.6-4.2-3.2L315 168v-3z"/><path fill="#353530" d="M165 216c2.4 3.6 2.3 6.3 2.3 10.5l.1 2.1c0 4.9 0 4.9-1.9 7.4l-1.5 1-.1-8.2V222q.2-3 1.1-6"/><path fill="#e9eae5" d="M75 424h7a31 31 0 0 1-6 10l-2 4 .1-3.3c.1-3.6.1-3.6-1.1-6.7l2-2z"/><path fill="#e0e0de" d="M188 308c2.9.5 3.9.9 6 3-.4 2.6-.4 2.6-1 5-1.9.6-1.9.6-4 1-2-2-2-2-2.2-5.1.2-2.9.2-2.9 1.2-3.9"/><path fill="#3d3d3b" d="M308 233h3v5h3l-1 3h-10c1-3 1.8-3.9 4-6z"/><path fill="#4d4e49" d="M182 193h3a83 83 0 0 1-3 14l-1-3h-2v2l-2-1 2-7h2zm-1 9 1 2Z"/><path fill="#555552" d="M188 133c2.1 1.8 2.1 1.8 4 4-.2 2.3-.2 2.3-1 4v-2l-3.2 1.6c-2.9 1.3-3.5 1.5-6.7.6L179 140z"/><path fill="#575853" d="M121 427c2 3 2 3 1.8 5.4-.9 2.8-1.7 4.5-3.8 6.6h-4c.4-5.6 2.3-8 6-12"/><path fill="#51514e" d="M253 313h2l2 3.9 1.1 2.2c.9 1.9.9 1.9.9 3.9h-2v5q-2.2-4.4-4.1-8.7l-1.1-2.5-.8-1.8z"/><path fill="#3b3c37" d="M133 131v2c-4.9 2.4-7.5 3.5-13 2 1-3 1-3 3.1-4.3 3.6-.9 6.3-.4 9.9.3"/><path fill="#373735" d="m118 333-.4 4.4-.3 2.4c-.3 2.2-.3 2.2-1.3 4.2l2 1-3 5-3-2q1-7.1 3-14c2-1 2-1 3-1"/><path fill="#434341" d="M283 322h4l-1 12-3 1c-1-3-1-3 0-6l-2-1c.9-4.9.9-4.9 2-6"/><path fill="#e3e3e1" d="M268 305c4 1.7 6.8 4.1 10 7v2c-6.6.3-6.6.3-10-2-.2-3.6-.2-3.6 0-7"/><path fill="#41403e" d="m190 306-1.4 1.6a17 17 0 0 0-2.6 8.4h-3v-7l-3-1v-2c3.3-1.6 6.4-.5 10 0"/><path fill="#393a36" d="M142 377a44 44 0 0 1-4 11c-2.7 1.4-2.7 1.4-5 2 .2-7.1.2-7.1 2.3-9.6 4-3.4 4-3.4 6.7-3.4"/><path fill="#3a3b35" d="M231 343v3a19 19 0 0 1-11 2l-2-2 1-2c4-1.2 7.9-1.1 12-1"/><path fill="#eeeeec" d="M280 215h4v7c-2.2 2.2-4.1 2.9-7 4l.9-4.9.6-2.8c.5-2.3.5-2.3 1.5-3.3"/><path fill="#3a3938" d="M290 197h5v4h-4l-.8 2.3c-1.2 2.6-1.9 4.1-4.2 5.7-2.7.2-2.7.2-5 0l2-3h3l.3-2.4c.7-2.6.7-2.6 3.7-4.6z"/><path fill="#dddddc" d="m285 195 4 1c-.5 3.8-1.5 6.1-4 9l-4-1c.6-3.5 2.1-6 4-9"/><path fill="#636361" d="M393 172h1l1 25-4 1-1 2c-.9-2.6-1.1-3.6-.1-6.2l1.1-1.8h2z"/><path fill="#585856" d="M190 53h33v5h-3l-1-4h-29z"/><path fill="#454442" d="m197 339 4 4-5 9-1-2-3-1z"/><path fill="#70706e" d="M317 254c2 2 2 2 2.2 5.3l-.1 3.8v3.9l-.1 3h-1l-1-8-3 10c-1.1-3.3-.9-5.2-.6-8.7l.3-3 .3-2.3 3 1z"/><path fill="#343531" d="M177 88c1.1 3.8 1.1 3.8 0 6h2c-.7 7.6-.7 7.6-3 11-1.8-3.1-2.2-5-1.8-8.5l.3-2.3q.7-3.2 2.5-6.2"/><path fill="#373633" d="M244 318h3c4 14.9 4 14.9 1 21h-2l.1-3v-3.8l.1-3.8c.1-3.5.1-3.5-2.2-6.4z"/><path fill="#f7f7f5" d="M301 226h2l1 3-1 2 2 1-1 5h-3v-2l-3 1c-.2-2.3-.2-2.3 0-5 1.5-1.7 1.5-1.7 3-3z"/><path fill="#cdcdcb" d="M281 330a32 32 0 0 1 1.1 9.8l-.1 2.9v2.3h-2l-1-3-2 3c-.6-10.2-.6-10.2 2-13.7z"/><path fill="#676662" d="m84 288 1 2h2l2-2 1 18-2-1c-.6-1.7-.6-1.7-1-3.9a16 16 0 0 0-3-7.1z"/><path fill="#4e4e4c" d="M127 277h3c-1 7.4-1 7.4-2 11l-4-1c.7-6.6.7-6.6 3-10"/><path fill="#676764" d="M120 272h1v18h2l1-4 3 2-1 9c-1-4-1-4-1-6l-1.9.6-2.1.4c-1-1-1-1-1.1-2.9v-7.7l.1-2.7z"/><path fill="#40403d" d="M215 266c.4 3.6 0 5-1.9 8.3L211 277h-2c-.8-2.7-.8-2.7-1-6 4-5 4-5 7-5"/><path fill="#d7d7d5" d="M266 249h3l.2 1.9.8 2.1 5 2c.8 2.1.8 2.1 1 4l-5-1v-2l-1.9-.7c-2.1-1.3-2.1-1.3-2.8-3.9z"/><path fill="#40403d" d="M366 139h2c1.2 5.7.9 10.5-1 16l-2 2c-1.1-4.2-.8-7.5-.1-11.8l.6-3.5z"/><path fill="#dededc" d="M221 125h2l1.1 5.3.6 2.9c.6 5.1-.5 6.6-3.7 10.8z"/><path fill="#3b3b37" d="M161 123a38 38 0 0 1-7 10c-1.6-1.2-1.6-1.2-3-3 0-2 0-2 1-4 3.3-2.5 4.7-3 9-3"/><path fill="#61615f" d="m261 286 4 1-3 1v2l4 1h-3l3 4-1 2-3-2-1 3c-2-3.7-2-3.7-2-6l-2-2h2z"/><path fill="#4b4a47" d="m194 236 2 1-4 5 1 2c-2.3 1.1-2.3 1.1-5 2-2.3-.9-2.3-.9-4-2l4-2-4-1 4.9-2.6 2.7-1.4z"/><path fill="#e5e4e2" d="M313 231c4.9.9 4.9.9 6 2v5h-7z"/><path fill="#e6e6e4" d="m287 226 3 1 1 4 2 1-1 4-6-1z"/><path fill="#3d3d3a" d="M300 221c.5 6.4.5 6.4-1.9 9.4-2.1 1.6-2.1 1.6-4.1 1.6l1-5 .4-2.7.6-2.3c2-1 2-1 4-1"/><path fill="#353531" d="m334 221 4 1c1.2 2.5 1.2 4.2 1.2 7v2.7c-.2 2.3-.2 2.3-2.2 4.3l-1.5-6.4-.8-3.6c-.7-3-.7-3-.7-5"/><path fill="#393936" d="M237 217c6.6 5 6.6 5 8 10-2.7-.2-4.5-.5-6.4-2.3-3.6-4.2-3.6-4.2-3.6-6.7z"/><path fill="#61615d" d="M130 213h1l-1 11h-2l.5 2.4q.8 6.7.5 13.6h-1a64 64 0 0 1 0-25z"/><path fill="#f2f2f0" d="m211 95 3 1v12c-2-1-2-1-3-4l-2-1c.9-6.9.9-6.9 2-8"/><path fill="#62635e" d="M239 341c-1 2.8-1.7 3.8-4.4 5.3-2.7.7-4 .7-6.6-.3h3v-3h-6v-1l4.7-1.1 2.7-.6c2.6-.3 4.2-.1 6.6.7"/><path fill="#1e1d1a" d="M115 314h2c2 2 2 2 2.2 3.9l-.2 6.1h-1l-1 9h-1c-1-4.2-1.1-8-1.1-12.3l.1-3.8z"/><path fill="#f7f7f5" d="M259 245h3v11l-4-2-1-6-2-1 4-1z"/><path fill="#373735" d="M200 313v3c-2.3 2-2.3 2-5 4l-3 3v-4h-5l-1-2 3.6-.3A26 26 0 0 0 200 313"/><path fill="#363634" d="m266 279 4 1-.9 3.3q-1.2 3.8-2.1 7.7v-3l-5 2v-3l-1-3 4-1z"/><path fill="#33342f" d="m119 211 3 1-.8 1.6q-2.9 5.5-5.2 11.4l-2-2c.2-3.5.2-3.5 1-7l3-2z"/><path fill="#f6f5f3" d="M240 213h3c2 2 2 2 3 4h3l-2 4-7-2-1-5z"/><path fill="#44453f" d="M269 195h3c1.2 3.7.6 6.2 0 10h-4c-.1-7.7-.1-7.7 1-10"/><path fill="#3e3e3c" d="m219 117 2 3h2l2 8h1v6l-1-4h-2v-5h-2l-1 6h-1z"/><path fill="#32322e" d="M182 397h3c-.4 2.6-.7 4.6-2.1 6.8-2.9 1.8-5.6 1.4-8.9 1.2v-3l2.9-.2c3.2-.5 3.2-.5 4.5-2.9z"/><path fill="#52514f" d="M188 301c3 0 3 0 5 1l1 7-5-1v-1l-6-1 4-1z"/><path fill="#e9e9e5" d="m233 265 4 3v2h2l1-2 2 4-3 3-8-7 2-1z"/><path fill="#424240" d="M359 196c5.6 2.4 5.6 2.4 7.4 5 .6 2 .6 2 .6 5-3.9-1.7-3.9-1.7-5-4l-7-3 4-1z"/><path fill="#636360" d="M238 184c2.4 3.8 2.6 7.6 3 12l-4 2c-1.5-9.4-1.5-9.4 1-14"/><path fill="#454643" d="M134 184q2.1 3.8 3 8l-4 3-1-3-1 2-2-1q2.2-4.6 5-9"/><path fill="#cecfcb" d="M144 378v10h-5c.6-6.5.6-6.5 2.5-8.9 1.5-1.1 1.5-1.1 2.5-1.1"/><path fill="#474545" d="M234 308h3l1 7-2 1v2c-3.9-1.7-3.9-1.7-5-4h2l-1-4 2-1z"/><path fill="#b6b7b3" d="M95 246h1l.1 9.1.1 2.5c0 5.2-.5 9.5-2.2 14.4h-1q.6-13 2-26"/><path fill="#545452" d="m263 254 3.9.9 2.3.5c1.8.6 1.8.6 2.8 2.6l4 2c-2.6 1.4-2.6 1.4-6 2q-4-2.4-7-6z"/><path fill="#e8e8e6" d="M276 192c1.4 2.8 1.1 5 1.1 8.1l-.1 3.3v2.6l-4-1c-.4-5.2.8-8.4 3-13"/><path fill="#41423c" d="M93 191c-.4 2.7-.7 4.6-2.3 6.8C89 199 89 199 85 199c.7-4.7 3-8 8-8"/><path fill="#e4e5e1" d="M311 171c4.2.5 6.2 3 9 6l-1 2h-2l-2-3-6 1q.6-3.1 2-6"/><path fill="#5a5956" d="m346 156 3 2-.9 4.8-.5 2.7c-.6 2.5-.6 2.5-2.6 5.5v-4h-2z"/><path fill="#3c3c3b" d="M214 89c1.8 3.1 2 4.2 2 8l-3-1v-2l-1.9.6c-2.1.4-2.1.4-4.1-.6l1-4c2.1-.6 3.8-1 6-1"/><path fill="#ebeae8" d="M173 324c3.9 4.8 3.9 4.8 5 7l-4 1v-2h-2l1 3-3 2-1-6 4-2z"/><path fill="#d7d7d5" d="M314 242v5a29 29 0 0 1-9-3v-2c3.1-1.5 5.7-.5 9 0"/><path fill="#c9cac5" d="M338 222c2 1 2 1 2.7 2.9 1.8 8.2 1.8 8.2.3 12.1l-3 4-2-1 2-3q.2-3.8.1-7.7v-2.1z"/><path fill="#403f3d" d="M385 185h4c2.1 3.4 2.2 6.1 2 10l-2 1-2-3.8-1.1-2.2c-.9-2-.9-2-.9-5"/><path fill="#504f4b" d="M196 130c1 2 1 2 .9 4.8.1 3.3.9 5.2 2.1 8.2l-1 2-4 1-2-4h2l.2-2.4.2-3 .3-3.1c.3-2.5.3-2.5 1.3-3.5"/><path fill="#585755" d="m182 53 2 1-1 2h-2v3h2v5l-1-4h-3v2l-3 1-1-5z"/><path fill="#c1c1bd" d="M149 386h2v2l6 2v2l2.2.4 2.7.5a23 23 0 0 1 5.1 1.1l1 2a29 29 0 0 1-16-5v-2l-3-1z"/><path fill="#e3e2e0" d="m201 375 4 4-1 2h-3l-1 2h-6l2-3h2l.9-1.9c1.1-2.1 1.1-2.1 2.1-3.1"/><path fill="#f4f3f1" d="m191 368 3 1h3l1 4c-3 2-3 2-6 2v-2h-2z"/><path fill="#3b3a39" d="m203 281 2 4-5 7-2-2c.4-2.6.4-2.6 1-5l3-1z"/><path fill="#2e2e2c" d="M284 225h2l-1 8h-3v3l3 1-3 1c-2-3-2-3-1.6-5.2l.9-2.4.9-2.4c.8-2 .8-2 1.8-3"/><path fill="#50514c" d="M232 210a59 59 0 0 1 5 5v3l-3 1-5-6 3-1z"/><path fill="#edeee9" d="m114 203 5 3c-1.7 5.8-1.7 5.8-4 8l-4-4v-2h3z"/><path fill="#5a5a55" d="m134 124 4 2c-.8 2.4-.8 2.4-2 5-3.6 1.2-4.6.5-8-1l3-3h2z"/><path fill="#2f2e2a" d="m116 367 2 1c-.5 4.1-.9 7.5-3 11h-2c.9-8.6.9-8.6 3-12"/><path fill="#4a4945" d="M111 344q2.1 3.8 3 8c-3 2-3 2-5.2 1.6l-1.8-.6a91 91 0 0 1 4-9"/><path fill="#4d4c4a" d="M216 323v2l-3 1v3l-5 2-2-4c6.6-4 6.6-4 10-4"/><path fill="#5f605b" d="M150 304a49 49 0 0 1 1.6 9.3l.2 2.7.2 2-5 2a110 110 0 0 1 3-16"/><path fill="#52514f" d="M326 143h1v6h-2l1 3-2 2c-2.1-.4-2.1-.4-4-1 1.4-4 3.2-6.8 6-10"/><path fill="#3c3b39" d="M300 143c-.2 3.3-1.5 4.7-3.9 6.8L293 152l-3-1c1.5-4.6 5-8 10-8"/><path fill="#3d3d39" d="m143 139 1 4h2l1-2-1 13-3-2a26 26 0 0 1 0-13"/><path fill="#3c3c3b" d="M257 94h3l1 2c2.4.5 2.4.5 5.1.6l2.7.3 2.2.1-2 2c-3.3 0-3.3 0-7.1-.4l-3.9-.3-3-.3z"/><path fill="#e7e8e2" d="M168 91h3l1 2h3l-2 9-3-2 1-4h-2z"/><path fill="#535250" d="m178 324 1 2 2.4.4c2.6.6 2.6.6 3.9 2.7l.7 1.9c-5.4.4-5.4.4-8 0-2-2-2-2-3-4h3z"/><path fill="#393936" d="M152 318c-.5 3.7-.9 5.8-3 9h-3c.3-3.4.3-3.4 1-7 3-2 3-2 5-2"/><path fill="#4e4d4d" d="m250 301 3 4c-1.2 2-1.2 2-3 4-2.7.3-2.7.3-5 0l-1 2-3-2 2.8-1.2c3.4-1.9 4.5-3.3 6.2-6.8"/><path fill="#4d4c4a" d="M222 287c2.4 2.2 3.8 4.3 5.2 7.2l1 2.2.8 1.6-2 1v-2h-2l-1 2-.4-3.2a19 19 0 0 0-2.6-7.8z"/><path fill="#cfcfcd" d="m256 280 3 1c1.3 2.9 1.3 2.9 2 6l-2 3-3-1z"/><path fill="#3d3e3a" d="M285 259h3c2.1 3.4 2.2 6.1 2 10h-3c-1.3-3.6-2-6.1-2-10"/><path fill="#565654" d="M240 226c3.3-.4 3.3-.4 7 0 2.4 3 2.4 3 4 6-3.2.4-3.2.4-7 0-2.4-3-2.4-3-4-6"/><path fill="#4f504a" d="M201 207h3l-2 10-4-1z"/><path fill="#565654" d="m286 202 1 2c-1.2 3.2-2 4-5 6l-3 1-2 3v-3l-4-1 5-1 1-3 6-1z"/><path fill="#383735" d="m284 151 6 2v2h2l-1 3-7-2c-.6-1.9-.6-1.9-1-4z"/><path fill="#4f4e4b" d="M384 133c3.1 2.5 3.9 5.2 5 9h-3l-1 2c-1.6-2.7-1.6-2.7-3-6 .8-2.9.8-2.9 2-5"/><path fill="#5d5d59" d="M302 84h10l-4 2-2 2q-3.8.2-7.6.1h-2.2L291 88v-1l2.2-.1 2.7-.3 2.8-.2 2.3-.4z"/><path fill="#4f4f4d" d="m267 312 8 1-1 6-5-1z"/><path fill="#d5d3d4" d="M245 312c2.3.1 2.3.1 5 1 1.8 3.1 1.8 3.1 3 6l-5 1c-3-5.7-3-5.7-3-8"/><path fill="#363634" d="M248 293c.7 1.8.7 1.8 1 4-1.1 2.2-1.1 2.2-3 4-2.7.8-2.7.8-5 1 2.5-6.6 2.5-6.6 5.2-8.4z"/><path fill="#83847e" d="M120 255c1.2 2.5 1 3.8.7 6.6l-.3 2.4-.4 2-2 1c-.5 3-.5 3-.6 6.6l-.3 3.6-.1 2.8h-1c-.3-8.5-.3-16.1 3-24z"/><path fill="#393835" d="M179 251c-.5 3.4-1.1 5.1-3 8h-2l-1-2-2 1v-3c4.2-4 4.2-4 8-4"/><path fill="#e2e2e0" d="m203 224 2 1c-1.6 6.8-1.6 6.8-5 9v-3h-2l2-6 1 2h2z"/><path fill="#555553" d="M316 210h-2v2h7v1l-10 1 1 3-4-2 4-4-4-1c3.1-1 4.9-1 8 0"/><path fill="#dbdcd8" d="M222 208c4 0 4 0 5.8 1.4 1.2 1.6 1.2 1.6 1.2 3.6l-6 2c-1.1-1.8-1.1-1.8-2-4z"/><path fill="#6d6c68" d="M391 147c2.4 2.4 2.5 3.8 3.1 7.1l.5 2.8.4 2.1h-3l1 11a20 20 0 0 1-2.6-8.7l-.3-2.5-.1-1.8h3l-1-2.7c-1-3.3-1-3.3-1-7.3"/><path fill="#585754" d="M284 145c1.5 1.3 1.5 1.3 3 3v3l4-2c.6 1.9.6 1.9 1 4l-2 2-1-2c-3-.7-3-.7-6-1l-1-6z"/><path fill="#474743" d="M226 135h2l2 11h-2l-1 4c-1-3.3-1.1-6.3-1.1-9.7l.1-3z"/><path fill="#d8d8d6" d="M217 103c4 1.3 4.9 3.4 7 7v2h-5c-2-5.6-2-5.6-2-9"/><path fill="#575852" d="m155 66-3 1 4 2-12 2v-4c7.4-2.4 7.4-2.4 11-1"/><path fill="#4c4b49" d="m80 432 3 1c-2.5 4.8-2.5 4.8-5.2 5.8l-1.8.2-1-5 1.9-.4c2.1-.4 2.1-.4 3.1-1.6"/><path fill="#32332e" d="m154 393 10 2-1 3c-5.7.1-5.7.1-8-1l-1 2z"/><path fill="#e5e5e1" d="M139 393h7l2 2-1 1v6h-2v-3h-2l-.4-1.9-.6-2.1-2-1-1 4z"/><path fill="#e7e7e5" d="M221 295h2l1 6-3 1-2-1-1 3-2-1 2.4-4 1.3-2.2z"/><path fill="#363531" d="m190 242-2 2h-2l2 2c-2.4 1.6-2.4 1.6-5 3l-2-1 1-2h-2v-2l3.9-1.6 2.2-.8c1.9-.6 1.9-.6 3.9.4"/><path fill="#dededb" d="M197 224c1.4 3.7.5 5.5-1 9v3l-3 1c-1.1-2.4-1.1-2.4-2-5 1-2 1-2 4-3 1.2-2.5 1.2-2.5 2-5"/><path fill="#32312e" d="M322 209v2h5v2l-13-1v-2c2.7-1.4 5-1.1 8-1"/><path fill="#3a3a38" d="m220 196 2 6q-5.2-.9-10-3v-2c2.9-.8 4.9-1 8-1"/><path fill="#71706d" d="m337 186 1 3 3.7-.1c3.5 0 6.1.5 9.3 2.1-3.4 2.3-5.9 2.5-10 3l2-1v-3h-6z"/><path fill="#565555" d="m228 189 4 4-1 2h-4v-2l-8-2v-1l3.9.1 4.1-.1z"/><path fill="#cacac7" d="m292 112 1 3 3 1c-1.8.7-1.8.7-4 1l-1.3-1.5c-1.7-1.8-1.7-1.8-4.6-1.6l-3.3.4-3.3.4-2.5.3c4.8-3.2 9.3-4.7 15-3"/><path fill="#e3e4de" d="M126 428c1.2 3.9.5 6.2-1 10l-6 1c1.8-4 4.4-7.5 7-11"/><path fill="#535151" d="m149 408 2 3h2c-1.4 3.2-2 4-5 6l-2-3-2-1z"/><path fill="#373632" d="M154 358h1c.2 3.4.3 5.4-1.4 8.4L152 368h-2v-7l3-1z"/><path fill="#d0d1cd" d="M155 304h1l1 7h-2l1.1 1.9.9 2.1-1 2h-2v3h-2a110 110 0 0 1 3-16"/><path fill="#3a3a38" d="M168 311h2l-1 3 1 1v2h-2l-1 4-3-1c1.7-6.7 1.7-6.7 4-9"/><path fill="#3a3936" d="M225 297c3.3.9 4.7 1.4 6.4 4.4l.6 2.6-2 3-2.5-3.3-1.4-1.9C225 300 225 300 225 297"/><path fill="#555553" d="M160 298h2l-.1 2.8c-.1 3.2-.1 3.2 1.1 6.2l-4-1v-2h-3v-2h2l1-3z"/><path fill="#d2d3cf" d="M317 273c1.4 4.5.1 6.9-2 11-1.6 1.8-1.6 1.8-3 3l-1 3h-2q2.3-5.8 5.1-11.3l1.7-3.3z"/><path fill="#40403d" d="m273 249 1 2 6 2v3c-3.4-.2-3.4-.2-7-1-1.4-2.1-1.4-2.1-2-4z"/><path fill="#60605d" d="M285 216h1l1 5 2-1-2 10h-1v-5l-3 1c.5-3.5.9-6.7 2-10"/><path fill="#393836" d="m326 126 1 2 2.8.4c3.7.7 4.8 1.8 7.2 4.6-3.7 0-6.8-.1-9.8-2.4-1.2-1.6-1.2-1.6-1.2-4.6"/><path fill="#555553" d="M182 84c1.5 3 .4 5-.4 8.1l-.9 3.3-.7 2.6-1-4h-2v-8h3v3z"/><path fill="#63645f" d="M260 328h1l1 8 2.4.9 4.6 2.1c-1 1-1 1-3.1 1.1h-2.5l-2.5-.1H259c-1.4-2.7-.7-4.2-.1-7.1l.6-2.8z"/><path fill="#605f5d" d="M120 325h1l1 11h-2v-4l-3 1c.5-3.4 1.1-5.1 3-8m-5 3h1l1 6h-2z"/><path fill="#555550" d="M89 309h2c1.3 2.9 2 4.8 2 8h-3v6h-1c-1.3-9.4-1.3-9.4 0-14"/><path fill="#393937" d="M265 305h3l-.1 1.9v2.5l-.1 2.4c0 2.4 0 2.4 2.2 4.2h-3c-2-2-2-2-2.2-4.2l.1-2.4v-2.5z"/><path fill="#363435" d="M249 308.1c2 .9 2 .9 3.3 3.4l.7 2.5c-3.4 0-5.8-.9-9-2l1-3c2-1 2-1 4-.9"/><path fill="#5a5a58" d="m203 306 3 3c-1.4 3.2-2 4-5 6-.7-2.8-.7-2.8-1-6 1.4-1.9 1.4-1.9 3-3"/><path fill="#383835" d="m312 275 3 1c-.3 2.9-.3 2.9-1 6l-3 2-2-1c1.9-5.7 1.9-5.7 3-8"/><path fill="#767572" d="m317 242 1.9 1c2 1.1 2 1.1 4.1 1l3 1h-2v2l4 2-10 1 2-4-3-1z"/><path fill="#3e3e3c" d="M94 238h3l-2 12h-1v-5l-1 1h-1c.9-6.9.9-6.9 2-8"/><path fill="#d6d6d4" d="m297 231 2 4h2v2l6-2-1 3c-2.7.7-2.7.7-6 1-2.4-1.4-2.4-1.4-4-3z"/><path fill="#e4e3e1" d="M258 232h2l1 3c1.5 1.7 1.5 1.7 3 3l-1 2c-3.9-1.3-5.8-2.5-8-6h3z"/><path fill="#383836" d="M195 221h2l-1 8-4 1c-.3-3.1-.2-4.6 1.4-7.3z"/><path fill="#5c5c59" d="M214 216c-.5 5.3-1.8 9.3-4 14-1.2-3.6-.7-6.3 0-10l-2-1c3.7-3 3.7-3 6-3"/><path fill="#c2c3be" d="M123 208h2l2 16c-3-3-3.1-6-4-10h-2z"/><path fill="#393a36" d="M307 171c.9 2.4 1.1 3.7.3 6.2-1.3 1.8-1.3 1.8-3.4 2.6l-1.9.2c1.6-6.7 1.6-6.7 5-9"/><path fill="#d1d1cf" d="M213 165h3c-.7 6.8-.7 6.8-3 9l-2-2c.3-2.6.8-4.6 2-7"/><path fill="#3c3d38" d="M294 113h8l-1 4-5 1z"/><path fill="#353631" d="M330 100v2l-4.8 1.6-2.6.8a10 10 0 0 1-6.6-.4h3v-2c3.6-2.3 6.8-2.2 11-2"/><path fill="#393836" d="m192 379 3 1c-1.7 3.9-1.7 3.9-4 5v-2l-8-1 1-2 3.4.1c3.4.3 3.4.3 4.6-1.1"/><path fill="#3a3935" d="M192 350h3c-.7 5.8-.7 5.8-3 8h-3c1.9-6.9 1.9-6.9 3-8"/><path fill="#383934" d="M278.5 296.7c2.8 1.5 3.4 2.4 4.5 5.3-2.2.3-2.2.3-5 0-2.3-2.5-2.3-2.5-4-5 2-1 2-1 4.5-.3"/><path fill="#f5f5f3" d="M242 288h5l-1 5-6 2 1-4h2z"/><path fill="#585753" d="M164 276h1l1 9h-2l-1.9 2.4c-2.2 2.8-2.8 3-6.1 3.6l2.9-3.4 1.7-2 2.4-2.6z"/><path fill="#2d2e29" d="M93 256h1l-1 16-2-1v-6h-1v-5l2-1z"/><path fill="#595856" d="M312 222h3v3h-3l.3 1.8.3 2.5.4 2.3c0 2.7-.6 4.1-2 6.4v-5l-2-1 1-1 .5-4c.4-3.9.4-3.9 1.5-5"/><path fill="#f8f8f6" d="m259 228 4 1 1 2h-2l1 5-3-1v-3h-2v2l-3-1h2z"/><path fill="#565553" d="M271 222c.8 2.9 1 4.9 1 8h-2v2l-5-2v-2h3v-2h2z"/><path fill="#dad9d7" d="M315 222h3v3h4v6l-3.5-2.2-2-1.3-1.5-1.5z"/><path fill="#787874" d="M118 218c1.1 3.3.8 4.7 0 8l-6-1 1 3-4 1 4-8 3 3z"/><path fill="#353631" d="M356 153h2c1.9 3.1 2.2 5.4 2 9l-2 1c-3.1-4.3-3.1-4.3-2.7-7.8z"/><path fill="#f8f8f5" d="M291 113c-.3 1.9-.3 1.9-1 4l-3 1v-2h-6v-2c3.5-1.2 6.4-1.1 10-1"/><path fill="#d2d3d0" d="M331 101c14.8-.6 14.8-.6 21 3l-1.9.4c-2.1.5-2.1.5-4.1 1.6v-2h-2v-2h-13z"/><path fill="#bcbcb8" d="m331 94 7 2v2c-3.2 1.6-6.4 1.1-10 1z"/><path fill="#62635f" d="m180 398 1 3c-1 1-1 1-4.1 1.1l-2.9-.1v3h6v1c-6.5.4-6.5.4-8.9-1.5L170 403c1.1-1.5 1.1-1.5 3-3 3.2-.2 3.2-.2 6 0z"/><path fill="#363633" d="m243.6 340.4 2.5.3 1.9.3v2l-11 1v-3c2.5-1.3 3.8-1 6.6-.6"/><path fill="#40413d" d="M259 341c-3.1 2.1-3.7 2.2-7.2 2.1l-3.8-.1 1-3c4.1-.9 6.4-1.3 10 1"/><path fill="#585756" d="M302 334h1l-1 11-1-3h-3v-6h2v2h2z"/><path fill="#51514d" d="m155 332 1.4 1.9c1.4 2.2 1.4 2.2 3.6 3.1l-3 4-5-1c1.9-5.7 1.9-5.7 3-8"/><path fill="#393836" d="M162 327c1 3 1 3-.4 6.2L160 336h-2l-1 2-1-6 5-1z"/><path fill="#d8d8d7" d="m286 306 5 1c-1.9 4.8-1.9 4.8-3 7l-4-1-1-2 4 1z"/><path fill="#3e3e39" d="M121 300h3c-.9 6.8-.9 6.8-2 9h-2l-1-7h2z"/><path fill="#3a3b38" d="m124 250 3 1c-.2 2.4-.2 2.4-1 5-2.1 1.3-2.1 1.3-4 2-.7-1.7-.7-1.7-1-4 1.4-2.2 1.4-2.2 3-4"/><path fill="#e9e9e7" d="M219 216h3l1 6-3-1c-2.7.9-2.7.9-5 2z"/><path fill="#3e3e3c" d="M381 202h10l-1 3h-9z"/><path fill="#31322f" d="M270.4 128.7c2.8 1.4 4.5 3 6.6 5.3l-1 2-3-2v-2l-4 1-3-4c2-1 2-1 4.4-.3"/><path fill="#f8f7f5" d="M270 119c2 2 2 2 2 6-3.8 0-4.9-.2-8-2l1-3 5 1z"/><path fill="#353631" d="m85 421 4 1c-.5 3.4-1.1 5.1-3 8h-2z"/><path fill="#3e3d39" d="m110 353 1 2c-1 2.4-1 2.4-2.4 5.1l-1.5 2.8-1.1 2.1c-2-3-2-3-1.6-5.7l.6-2.3 1.9-.3 2.1-.7z"/><path fill="#575752" d="M87 328h1l-.1 6c0 2.2 0 2.2 1.1 5l-1 3h-3l.4-4.7.3-2.7q.4-3.4 1.3-6.6"/><path fill="#d8d8d6" d="M291 318c4 1.4 6.9 3.2 10 6v2c-4-1.4-6.9-3.2-10-6z"/><path fill="#565752" d="m282 299 8 3-2 1-1 2-6-1-1-2 2-1z"/><path fill="#42413d" d="M84 294c3.6 3.6 3.6 3.6 4 7l-1 3h-3z"/><path fill="#4e4e4d" d="M249 264h3c1.1 5.8 1.1 5.8 0 8l-4-2z"/><path fill="#3c3c3a" d="m264 246 1 2 3 1h-2l2 6-2 1-3-2c-.3-3.1-.4-5.2 1-8"/><path fill="#52514f" d="m296 238 3 2-1 5-8-4z"/><path fill="#3b3b39" d="m279 210 2 1c-.5 3.7-1.1 5.6-4 8l-2-1 1-4h2z"/><path fill="#636261" d="m295 198 2 1v6h-3l-1 2h-2v-6h4z"/><path fill="#353631" d="m192 194 3.8-.1h2.2c2 .1 2 .1 5 1.1h5c-4.4 2.9-9.5 2.5-14.5 1.5l-1.5-.5z"/><path fill="#e4e3e1" d="M391 181c2.7 4 2.2 6.2 2 11h-2c-2.1-4.4-2.1-4.4-1.7-7.2z"/><path fill="#ccccc8" d="m105 176 2 3c-.7 2.3-.7 2.3-1.9 4.7l-1.2 2.4-.9 1.9-3-1q2.2-5.7 5-11"/><path fill="#dcdcda" d="M320 177c2 1.3 2 1.3 4 3v3l4 2c-1.8 1.1-1.8 1.1-4 2l-3-1 2-5h-2z"/><path fill="#42423f" d="M137 171h3l-.6 2.4-.4 2.6 2 2-4 4c-1.1-7.6-1.1-7.6 0-11"/><path fill="#fafaf8" d="m209 103 3 1c.6 2.9.6 2.9 1 6l-2 2-1-4h-2z"/><path fill="#dbdcd7" d="m274 92-3 2 1 2-10-1c3.4-3.4 7.4-4.8 12-3"/><path fill="#e2e2de" d="M86 429c1 2 1 2 .3 4.4A33 33 0 0 1 82 440l-3-2z"/><path fill="#363632" d="M138 396c2 2 2 2 2.2 4.4l-.1 2.7v2.8l-.1 2.1h-2c-1.3-8.6-1.3-8.6 0-12"/><path fill="#3c3d38" d="m147 386 1 2c2 .7 2 .7 4 1l1 4-5 1c-.6-2.8-1-5.2-1-8"/><path fill="#363731" d="M121 344h1c.4 8 .4 8-3 12l-.1-4.9-.1-2.7c.2-2.4.2-2.4 2.2-4.4"/><path fill="#2b2c27" d="M151 304a11 11 0 0 1 3 4q-.1 4-1 8h-2c-1.3-8.6-1.3-8.6 0-12"/><path fill="#363634" d="m209 303 2 1c-1.4 3.2-2 4-5 6l-2-4c2.4-1.6 2.4-1.6 5-3"/><path fill="#3b3b39" d="M269 302c1.8.1 1.8.1 4 1q2.2 3.3 4 7c-3.2-.3-4-1-6.2-3.4-1.8-2.6-1.8-2.6-1.8-4.6"/><path fill="#4f4f4d" d="m308 281 3 1 1 3c-1.9 2.7-1.9 2.7-4 5l-3-4z"/><path fill="#353533" d="m318 238 2 1-3 1v5l4 1-1 2-5-1v-8z"/><path fill="#403f3d" d="M312 225c3.3.6 4.8 1.5 7 4h-2v2h-4z"/><path fill="#5b5b59" d="m274 217 5 1c-.8 2.4-.8 2.4-2 5l-3 1-2-4z"/><path fill="#4a4a48" d="m212 175 3 1v3l3 1c-2 3-2 3-4 4-3.1-4.4-3.1-4.4-2.7-7.3z"/><path fill="#f5f4f2" d="M322 134h3l1 9-5 2 .5-2.7q.6-4 .5-8.3"/><path fill="#595a56" d="M303 110c.9 3 1 3.9 0 7l2 1-2 2c-3.1-.4-3.1-.4-6-1l1.9-1.3c2.4-1.6 2.4-1.6 3.1-4.7l-2-1z"/><path fill="#3d3d3b" d="M271 98c6.6.8 6.6.8 10 3h-3v2c-3-.6-4.4-1.3-7-3z"/><path fill="#f4f4f2" d="M176 394h5l-1 6h-3v-2l-2-1z"/><path fill="#333330" d="m174 386 1.1 1.5c2.8 2.2 5.4 1.7 8.9 1.5l-2 3c-3 .4-3 .4-6 0-2-3-2-3-2-6"/><path fill="#363635" d="M164 297c5.8.9 5.8.9 8 2v3c-3.4-.5-5.1-1.1-8-3z"/><path fill="#383835" d="M196 236c2 1 2 1 4 4-2.8 1.6-2.8 1.6-6 3l-3-1z"/><path fill="#51524d" d="M119 207h2l1 4h-3l-.3 1.9-.7 2.1-3 1c1.1-3.4 2-6 4-9"/><path fill="#373732" d="M179 204h2c.4 4.6.4 4.6-1.5 6.8L178 212v-2h-2l1-4h2z"/><path fill="#4d4d4b" d="M199 143c2.6 2.5 4.7 4.6 6 8l-1 2h-2c-2.5-2.5-3-3.7-3.2-7.2z"/><path fill="#52524e" d="m157 119 1 2c2.5.7 2.5.7 5 1-2.4 2.4-3.7 2.5-7 3l-4 1z"/><path fill="#4b4c48" d="m271 86 7.1.7 1.9.3c-1.3 1.5-1.3 1.5-3 3-3.2.2-3.2.2-6 0l-1-3z"/><path fill="#e4e3df" d="M306 324c3 3 3 3 4 6l-5 4z"/><path fill="#e1e0de" d="m177 322 7 3 1-3 3 2c-1.1 1.6-1.1 1.6-3 3-3.2-.3-3.2-.3-6-1v-2h-2z"/><path fill="#5f5f5d" d="m245 286 4 1v4l4 1c-3.1 2.6-3.7 3-8 3l.6-3.4c.7-3.4.7-3.4-.6-5.6"/><path fill="#7c7d78" d="M160 240c2 1.8 2 1.8 4 4v3l4 1-2.9-.1c-3.2-.2-3.2-.2-5.1 2.1z"/><path fill="#e1e0de" d="M246 215c3.9 1.3 5.8 2.5 8 6l-2 2-3-3-1 2 1-5h-3z"/><path fill="#40403e" d="M393 197c1 3 1 3 1 7h2v3l-5-1 .6-1.7c.4-2.5.2-3.9-.6-6.3z"/><path fill="#dadad8" d="m217 174 3 3v2h2l1 3-2 3-1.4-2.4c-1.3-2.7-1.3-2.7-3.6-3.6z"/><path fill="#555553" d="m347 142 3 1-2 13c-.8-3.4-1-5.6-1-9l-1-3z"/><path fill="#61615f" d="m361 103 2 4-4 4-5-5 6 1z"/><path fill="#262722" d="M288 85c-2 3-2 3-4.4 3.5l-2.7.2-2.8.2-2.1.1v-3c4-1.3 7.9-1.1 12-1"/><path fill="#d1d2cc" d="M127 411c1.4 3.2.9 4.3-.4 7.6L124 424h-2c0-4 0-4 2-6l2-1c.7-3 .7-3 1-6"/><path fill="#e1e1de" d="M193 383c0 3.4-.9 5.8-2 9h-2l-1 2c-.3-2.7-.3-2.7 0-6 2.5-2.9 2.5-2.9 5-5"/><path fill="#f7f7f5" d="M178 383h5l1 5-6-1z"/><path fill="#cac9c5" d="M118 372h3v4l-1.9.3-2.1.7-1 3-3-1 2-1z"/><path fill="#333230" d="M191 325c-1.4 3.7-1.4 3.7-3.9 4.9-2.6.1-3.9-.6-6.1-1.9 6.6-3 6.6-3 10-3"/><path fill="#4d4d4b" d="m91 244 4 1v11l-1-4h-2z"/><path fill="#555553" d="m262 245 7 1-1 3-4-1-1 6h-1z"/><path fill="#5a5a58" d="m275 231 6 1 1 6h-3l-1 2 1-6-1 1-3-2z"/><path fill="#424240" d="M207 220h3v6l-3 1-2-1q.6-3.1 2-6"/><path fill="#cccbca" d="m291 202 1 3c-1.9 3.2-1.9 3.2-4 6l-6-1 1.7-.6c3.2-2 5-4.4 7.3-7.4"/><path fill="#2a2927" d="M235 178h2c1.3 7.6 1.3 7.6-1 11-1.3-3.8-1.1-6.9-1-11"/><path fill="#6c6d68" d="M105 149h1l-1 9h2l-1 5-3-1 .4-4.2.3-2.4q.4-3.3 1.3-6.4"/><path fill="#565653" d="m173 147 3 2-3 9h-5l1-3 3-1z"/><path fill="#d5d5d3" d="M195 147a59 59 0 0 1 5 5v3c-2.9-.8-2.9-.8-6-2l-1-3h2z"/><path fill="#d4d3cf" d="M278 143c3 2 3 2 3.7 4.6l.3 2.4-7-1z"/><path fill="#5c5c57" d="m109 139 3 1v2l2 1-2 7h-1l-1-7h-2z"/><path fill="#cfcecc" d="m271 117-1 4-5-1v4l-3-1c1.1-2.9 1.7-3.8 4.5-5.2 2.5-.8 2.5-.8 4.5-.8"/><path fill="#434240" d="M280 112v2l-10 3v-3c3.6-1.3 6.1-2 10-2"/><path fill="#646360" d="m319 102 1 4-6 2v-2l-3-1c5.7-3 5.7-3 8-3"/><path fill="#e8e8e5" d="m313 98 10 2c-2.6 2.6-4.5 2.5-8 3z"/><path fill="#3d3c3a" d="M203 75h5v5h-5z"/><path fill="#32312f" d="M183 60c2.6 4 3.3 7.2 2.6 11.9L185 74h-1l-1-5h-1z"/><path fill="#494846" d="m188 55 1 5c-3.7-.5-5.6-1.1-8-4 2.5-1.2 4.3-1.1 7-1"/><path fill="#31302e" d="m141 419 3 2-1 8-3-1v-8z"/><path fill="#c9c9c6" d="M116 347h2v5l-1.7.8a38 38 0 0 0-6.3 4.2 63 63 0 0 1 6-10"/><path fill="#f8f7f5" d="m190 328 4 2a26 26 0 0 1-7 5l-2-1v-2l1.9-.9c2.3-.9 2.3-.9 3.1-3.1"/><path fill="#dfdeda" d="m229 320 2 1v4l-8-1c2.1-2.2 3-3 6-4"/><path fill="#525250" d="m241 299 2 2 2 1-5 5-2-5h2z"/><path fill="#555553" d="M202 235v3l2 1-7-1-1-3c2.5-1.2 3.4-.8 6 0"/><path fill="#dcdcda" d="m277 222 1 2-1 3 2 1-2 3-3-1c.7-5.7.7-5.7 3-8"/><path fill="#2a2926" d="M130 218h1l1 11h-4v-5h2z"/><path fill="#464644" d="M215 216c2.1.4 2.1.4 4 1l-5 5-2-1c1.9-3.9 1.9-3.9 3-5"/><path fill="#cfcfcd" d="M376 195h1v5l5 1c-3 2-3 2-7 3z"/><path fill="#343232" d="M290 197h5v4h-4v2h-3c0-2 0-2 2-4z"/><path fill="#4b494a" d="M289 193h4l-1 4h-2v2l2 1-4 1c-.1-5.7-.1-5.7 1-8"/><path fill="#73746f" d="M182 189h5l-1 5-4-1-1 5c-1-2.8-1-3.9-.1-6.7z"/><path fill="#3e3e3b" d="M371 168c4.9 1.8 4.9 1.8 6 4l-3 4c-3-6.9-3-6.9-3-8"/><path fill="#373733" d="M171 156c.8 1.8.8 1.8 1 4-1.9 2.3-1.9 2.3-4 4l-1-6z"/><path fill="#4a4b46" d="m353 149 3 1 1 3c-1.4 2.2-1.4 2.2-3 4-1.4-2.4-2.1-3.5-1.6-6.2z"/><path fill="#565752" d="M271 132h2v2l7 2-1 2c-2.2.3-2.2.3-5 0-2.3-2.5-2.3-2.5-4-5z"/><path fill="#e5e4e3" d="m305 104 6 1a38 38 0 0 1-9 6v-3h3z"/><path fill="#4f4f4d" d="m206 93 7 1-2 2-2 4-2-3-3 1z"/><path fill="#2f2e2a" d="M129 406c2 4 2.2 5.7 2 10h-3z"/><path fill="#d0d0cd" d="M256 328h1l.2 4.4.1 2.4-.3 2.2c-3 2-3 2-5.2 1.6l-1.8-.6 2-2h4z"/><path fill="#e4e4e2" d="M258 296c3.9 1.8 3.9 1.8 5 4l-8 2v-2h2z"/><path fill="#585854" d="M302 290c1 4 1 4 1 8l-1-2-5 2z"/><path fill="#545452" d="m261 279 3 2 2-1-1 4-5 1-1-3z"/><path fill="#3d3d39" d="M127 277h3l-1 6-3 1v-6z"/><path fill="#cbccc8" d="m273 272 2 3-6 10-1-2 3-5z"/><path fill="#2d2d2b" d="M276 262c1 3 1 3 .1 5.2L275 269l-3-1 1-5z"/><path fill="#e0e1de" d="m275 246 7 1v2h-5l1 3-3-1z"/><path fill="#535351" d="M285 230h1v5l3 1h-3l-1 3c-1.5-1.3-1.5-1.3-3-3v-3h3z"/><path fill="#373833" d="M104 232h6l-1 3c-2.6 1.2-2.6 1.2-5 2l-2-3h2z"/><path fill="#3d3d3b" d="M311 217c1.6 1.3 1.6 1.3 3 3-.3 2.2-.3 2.2-1 4l-3-2v-2l-3 1v-2z"/><path fill="#373735" d="M312 211c-1.6 3.2-4.5 5.5-7 8l1-7c2-1 2-1 6-1"/><path fill="#d8d8d6" d="M208 176a59 59 0 0 1 5 5v3l-5-2z"/><path fill="#edeee9" d="M315 175v2h-2l-1 4h-2l-3-4c5.7-2 5.7-2 8-2"/><path fill="#42433e" d="M106 161c2 3 2 3 1.6 6.2l-.6 2.8-3-1c-.2-3.7-.2-4.8 2-8"/><path fill="#3f3e3c" d="M317 130v3c-2.6 1.5-3.9 2-7 2 1.8-3.9 2.5-5 7-5"/><path fill="#393934" d="M161 116h2c1 3 1 3 0 6l-5-1c1.9-3.9 1.9-3.9 3-5"/><path fill="#c3c3c1" d="M309 111v6l-6-1c2.3-5 2.3-5 6-5"/><path fill="#343531" d="m332 91 6 1 1 4-6-1z"/><path fill="#363633" d="m266 89 1 4h-8v-2z"/><path fill="#464644" d="M219 54a29 29 0 0 1 2 5l-2 3-1-5-6-1c2.6-1.5 3.9-2 7-2"/><path fill="#bebdba" d="M109 357c.6 1.8.6 1.8 1 4l-2 3-1 7h-1c-.3-5.5-.5-9.4 3-14"/><path fill="#31302e" d="m304 329 1 3-1 2h-2v4h-2l-1-4h2v-2h2z"/><path fill="#31302d" d="m302 321 3 1 1 6-3-1v-3h-2z"/><path fill="#5c5b59" d="M163 313h1l.3 2.8c.7 3.2 1.2 4.2 3.7 6.2l-5 1c-1.2-3.7-.6-6.2 0-10"/><path fill="#dfdfdd" d="M280 316c2.1.4 2.1.4 4 1l-1 6-1-2h-2c-.6-1.9-.6-1.9-1-4z"/><path fill="#3c3c3a" d="M281 311c2.5 1.2 4 2 6 4-.4 3.1-.4 3.1-1 6-1.5-2.6-2-3.9-2-7l-3-1z"/><path fill="#e1e0dc" d="M212 305c1 3 1 3 1 6l-6-1z"/><path fill="#eaeae8" d="M263 291c3.3.6 4.8 1.5 7 4l-2 2-5-4z"/><path fill="#cdceca" d="M219 286c1.2 2.5.8 3.4 0 6h-2l-2 4v-6h2z"/><path fill="#e1e1df" d="M245 280h6l1 5c-2.9-.4-3.8-.8-5.7-3.1z"/><path fill="#60605f" d="m205 276 1 4 1 3h-3l-1-1-1 2-2-1z"/><path fill="#cacaca" d="m251 260 3 1 1 8-3-1 .1-2.3c0-2.8 0-2.8-1.1-5.7"/><path fill="#363634" d="M306 245q3.1.6 6 2l-1 3-4-1z"/><path fill="#5e5f5a" d="M297 220c6.2.6 6.2.6 8 1l1 2-6 1v-3l-4 1z"/><path fill="#363634" d="m233 199 1 2h3l1 5c-1.9-.2-1.9-.2-4-1-1.3-2.6-1.3-2.6-2-5z"/><path fill="#5a5957" d="M384 179c2 1.3 2 1.3 4 3v3l-4 1-2-3 2-2z"/><path fill="#474643" d="m293 157 7 1-2 2 3 2-2 1c-2.1-.9-2.1-.9-4-2v-2l-3-1z"/><path fill="#33322f" d="M386 142h3c2.2 3.2 2.2 4.3 2 8l-1.4-1.4c-1.5-1.7-1.5-1.7-3.6-2.6z"/><path fill="#5a5a56" d="M194 123c1.3 2.7.7 4.2 0 7l-3 1v2l-2-1z"/><path fill="#d7d6d4" d="M331 126c1.8.1 1.8.1 4 1 2.3 3.1 2.3 3.1 4 6a37 37 0 0 1-8-5z"/><path fill="#444342" d="M366 114c4.9 2.8 4.9 2.8 6 5l-4 2-.4-2.4-.6-2.6-2-1z"/><path fill="#e8e8e4" d="m253 93-2.4 1.3c-2.8 1.6-2.8 1.6-4.6 4.7-1.1-4.7-1.1-4.7 0-7 3.4-1.4 3.7-1.2 7 1"/><path fill="#f9faf6" d="M254 89v3c-2.3.6-2.3.6-5 1l-3-2c1-2 1-2 2.9-2.7 2.1-.3 2.1-.3 5.1.7"/><path fill="#474644" d="M181 67h3l1 8-4 1z"/><path fill="#b6b5b3" d="m188 60 2 4c-.7 1.9-.7 1.9-2 4l-2 5c-1.2-3.4-.8-5.4.4-8.7l.9-2.5z"/><path fill="#eeedeb" d="m187 49 11 2v1l-14 1z"/><path fill="#3c3d37" d="m118 433 2 1-1 5h-4v-3h2z"/><path fill="#e7e6e5" d="M156 408h2c-.3 3.3-1 4-3.6 6.3L152 416l-2-1 3-4h2z"/><path fill="#32312e" d="M153 400h3v8l-2-2-2 1z"/><path fill="#464543" d="m182 375 4 4v2l-4 1-2-3z"/><path fill="#5e5e5b" d="M217 345q3.1 1.7 6 4h-3l-1 3-1-4-3 1z"/><path fill="#32312f" d="m202 336 1 3-2 3-3-1c.3-1.9.3-1.9 1-4z"/><path fill="#383836" d="M283 322h4l-1 9-1-4h-2z"/><path fill="#333230" d="m117 320 2 4 1 1v5l-3 1z"/><path fill="#3e3c3d" d="m244 311-1 3-6 1c.3-1.9.3-1.9 1-4 3-1 3-1 6 0"/><path fill="#dbdcd7" d="m273 300 5 1-2 5-4-3z"/><path fill="#4a4b47" d="m271 293 6 2-3 3-4-2z"/><path fill="#2f2f2c" d="m87 282 2 1-1 9-1-2h-2l1-4h2z"/><path fill="#e7e7e2" d="M158 280h6l-1 4h-6z"/><path fill="#3f3f3c" d="m227 266 4 1 1 2-1 2-4-1-1-2z"/><path fill="#545550" d="M170 256h3l2 3-2 4-1-3-2-1v2l-2-1z"/><path fill="#333331" d="m252 236 7 2v3c-2.4-.2-2.4-.2-5-1-1.3-2.1-1.3-2.1-2-4"/><path fill="#2f302b" d="M336 228h3v6l-2 2c-1.4-2.7-1.1-5-1-8"/><path fill="#343530" d="M182 193h3v4c-2.5 2.3-2.5 2.3-5 4 .9-5.7.9-5.7 2-8"/><path fill="#5b5b59" d="m213 188 2 1-1 5h-6z"/><path fill="#ebeae6" d="M185 170h4l-2 8c-2.2-3.2-2.2-4.3-2-8"/><path fill="#5e5d5b" d="M148 138c.3 6.6.3 6.6-2 10v-5h-2l1-4c2-1 2-1 3-1"/><path fill="#d3d3cf" d="m131 135-7 5-3-3 3.9-1.6 2.2-.8c1.9-.6 1.9-.6 3.9.4"/><path fill="#3e3d3b" d="M337 134c1.9.3 1.9.3 4 1l2 3-5 1v-3l-2-1z"/><path fill="#e7e7e5" d="m315 124 4 2-5 5c-.6-1.8-.6-1.8-1-4z"/><path fill="#3b3c39" d="M215 108h2l.4 2.4.6 2.6 2 1c-1.9.6-1.9.6-4 1-1-1-1-1-1.1-4.1z"/><path fill="#3f3f3d" d="m257 107 2 1c-.5 3.7-.9 5.8-3 9l-.1-4.4v-2.5c.1-2.1.1-2.1 1.1-3.1"/><path fill="#636361" d="m173 97 3 3v4l-5 2z"/><path fill="#b4b4b2" d="m211 95 3 1v12h-1V98h-3z"/><path fill="#e3e2de" d="m149 416 2 3-2 3-1-1-1 2h-2c1.1-2.9 1.8-4.8 4-7"/><path fill="#32322d" d="M132 398h1l-1 10c-2.1-4.2-2.2-4.8-1-9z"/><path fill="#cecdcb" d="M184 377c5.8-.1 5.8-.1 8 1l-1 3c-2.4-.3-2.4-.3-5-1z"/><path fill="#535250" d="M195 343c1.5 2.6 2 3.9 2 7l-2 2v-2l-3-1z"/><path fill="#4e4e4c" d="m170 312 4 4-4 3-2-2h2v-2h-2c1-2 1-2 2-3"/><path fill="#2c2b29" d="m183 309 3 1v6h-3z"/><path fill="#343433" d="M292 307h3c-.6 3.3-1.5 4.8-4 7l-1-5h2z"/><path fill="#5b5b5b" d="m172 300 6 2c-2.6 1.7-4 2.4-7 3l-2-3h3z"/><path fill="#eaeae8" d="m240 282 6 5c-1.9 1.1-1.9 1.1-4 2l-2-1z"/><path fill="#454544" d="M315 269c.8 2.9 1 4.9 1 8l-4-2z"/><path fill="#d5d4d2" d="m269 261 4 2-2 5-4-5z"/><path fill="#cfcfcd" d="M266 249h3l1 6-4-2z"/><path fill="#323230" d="m286 236 7 1-1 3-6-1z"/><path fill="#dadad7" d="M296 222c.4 4.6.4 4.6-1.5 6.8L293 230l-1-6c3-2 3-2 4-2"/><path fill="#d0d1cc" d="M294 208c.9 2.5 1.1 3.7.3 6.2-1.3 1.8-1.3 1.8-4.3 2.8.5-3.8 1.5-6.1 4-9"/><path fill="#e6e7e2" d="m235 211 4 1 1 7c-2.8-2.5-4.5-4.2-5-8"/><path fill="#363634" d="M364 200c3.4 1.4 5.5 3.3 8 6l-4 2-.9-2.3c-1.1-2.9-1.1-2.9-3.1-5.7"/><path fill="#545452" d="m359 196 5 2c-1.7 1.6-1.7 1.6-4 3-2.8-.8-2.8-.8-5-2l4-1z"/><path fill="#757573" d="M271 193h3l-1 11h-1v-9l-2-1z"/><path fill="#dadad8" d="m334 179 2 2c-.4 2.6-.4 2.6-1 5l-3-1-1-3h3z"/><path fill="#30312e" d="m100 175 1 2h2c-.3 3.4-.3 3.4-1 7l-3 2c1.9-5.7 1.9-5.7 3-8h-2z"/><path fill="#464643" d="M108 143h2c1.3 3.9.2 6.1-1 10h-1l-.6-4.4-.3-2.5-.1-2.1z"/><path fill="#f2f2ef" d="M223 138c2 2 2 2 2.1 5.1l-.1 2.9-2 1c-1.1-6.7-1.1-6.7 0-9"/><path fill="#6c6c68" d="M320 86h2v5l-8-1 1.9-.9c2.2-1 2.2-1 4.1-3.1"/><path fill="#52534e" d="M138 85h3v7h-2z"/><path fill="#333230" d="m182 372-1 7-3-1 1-5c2-1 2-1 3-1"/><path fill="#d0cfcd" d="M151 321q1.3 5 1 10l-3 1c.9-7.6.9-7.6 2-11"/><path fill="#5e5d5b" d="M232 310h2l.3 1.9c.6 2.5.6 2.5 3.7 4.1h-2v2c-3.9-1.7-3.9-1.7-5-4h2z"/><path fill="#d7d7d5" d="m251 292 3 1c-.7 4.8-.7 4.8-3 7l-1-7z"/><path fill="#525250" d="M259 288c3 3 2.6 5.8 3 10l-3-2v-4l-2-2h2z"/><path fill="#343430" d="M217 264h6v2c-1.8 1.1-1.8 1.1-4 2l-3-1z"/><path fill="#585856" d="m245 256 4 1 1 6h-4l1-6z"/><path fill="#3c3d38" d="M236 251h5v2l3 1c-2 1-2 1-5.1.1L236 253z"/><path fill="#2f2e2b" d="m326 244 3 1-1 3h-6l2-1v-2z"/><path fill="#3a3937" d="M299 241c2 1.3 2 1.3 4 3v3l-4-1c-.6-1.9-.6-1.9-1-4z"/><path fill="#d9dad5" d="M105 236c2.3.8 2.3.8 4 2-3 2-3 2-6 3l-3-2c2.2-1.6 2.2-1.6 5-3"/><path fill="#646460" d="M188 172h3v7l-4-2z"/><path fill="#5a5b57" d="m368 166 4 2v5l-4-3 1-1-2-2z"/><path fill="#e4e4e2" d="M304 167h4v3c-2.5 2.2-2.5 2.2-5 4 0-2.6.3-4.5 1-7"/><path fill="#636260" d="M318 125h2l1 5-4 2v-2l-2-1 1.5-1.4c1.6-1.4 1.6-1.4 1.5-2.6"/><path fill="#353533" d="m283 109 8 1c-3.4 2.1-6.1 2.2-10 2z"/><path fill="#4c4d4a" d="m258 104 1 4h-2l-2 2-2-5c3-1 3-1 5-1"/><path fill="#3e3f3b" d="m122 426 4 1-2 5h-2z"/><path fill="#51504e" d="m99 379 3 2c.2 3.6.2 3.6 0 7l-2-1q-.7-4-1-8"/><path fill="#eae9e7" d="m295 328 5 2-1 4h-2z"/><path fill="#dbdad6" d="M253 320c1.6 1.8 1.6 1.8 3 4-.3 2.3-.3 2.3-1 4l-3-1z"/><path fill="#fafaf6" d="M156 315h1c.3 2.3.3 2.3 0 5-2.5 1.8-2.5 1.8-5 3v-3h2v-3h2z"/><path fill="#4f4f4c" d="m149 314 3 2v2l-5 2v-4h2z"/><path fill="#c4c4c2" d="m268 305 4 2-2 1v4h-2z"/><path fill="#4b4b49" d="m294 303-1 2-3-1v3l-5-2c3.4-2.3 5-2.2 9-2"/><path fill="#e8e8e3" d="m205 284 3 1-5 7-1-2z"/><path fill="#4b4b46" d="M163 286h5c-1.8 2-1.8 2-4 4h-3z"/><path fill="#5c5b57" d="m148 262 4 2-2 3h-3z"/><path fill="#b7b7b5" d="M173 252v3l-10 1c1-2 1-2 3.9-3.1 3.1-.9 3.1-.9 6.1-.9"/><path fill="#eaeae7" d="m323 250-2 1-1 2-3 1v-4c3-1 3-1 6 0"/><path fill="#4e4e4c" d="M315 247c2.1.4 2.1.4 4 1l-2 5-4-4z"/><path fill="#535250" d="M331 239c0 2.8-.4 5.2-1 8l-3-4z"/><path fill="#5c5c58" d="M335 233c2.1.4 2.1.4 4 1-.6 2.9-.9 3.9-3 6l-2-6z"/><path fill="#d4d4cf" d="m114 229 1 4-6 4-2-2 2.9-1.9c3.1-1.8 3.1-1.8 4.1-4.1"/><path fill="#3f3f3d" d="M284 225h2v5h-4c.9-3.9.9-3.9 2-5"/><path fill="#373632" d="m112 225 3 1-1 4-5 1v-2l3-2z"/><path fill="#373735" d="M273 221c2 3 2 3 1.6 5.2l-.6 1.8h-3z"/><path fill="#2f302b" d="m228 207 4 2v3c-1.9-.3-1.9-.3-4-1l-1-3z"/><path fill="#434243" d="m223 186 5 2-1 3-7-1 4-1z"/><path fill="#525250" d="m296 184 5 1-2 4-3-2-2 1z"/><path fill="#585856" d="m99 176 1 2h2l-2 6-3-2z"/><path fill="#30312c" d="m103 170 2 1v4l-3 1-1-5z"/><path fill="#d8d9d3" d="M322 171h4v6c-2-1.3-2-1.3-4-3z"/><path fill="#2f2e2a" d="M281 141c1.6 1.2 1.6 1.2 3 3-.3 2.7-.3 2.7-1 5l-2-1c-1.3-4.5-1.3-4.5 0-7"/><path fill="#e1e0dc" d="M391 137c.9 2.6 1.1 3.6.1 6.3L390 145l-2-6z"/><path fill="#464741" d="M112 136h3v3l-1.9.4-2.1.6-1 2c.9-4.9.9-4.9 2-6"/><path fill="#343530" d="m197 121 1 2h2l-1 3h-3l-2 2c.7-4.7.7-4.7 3-7"/><path fill="#fafbf5" d="m252 121 3 3v2q-3.1-.6-6-2v-2z"/><path fill="#6d6e69" d="m171 60 2 1-2 3-7-1q3.4-1.8 7-3"/></g></svg>
